<svg width="24" height="25" viewBox="0 0 24 25" fill="none" xmlns="http://www.w3.org/2000/svg">
<path d="M5 9.46154V17.4615M9.5 9.46154V17.4615M14.5 9.46154V17.4615M19 9.46154V17.4615M3 19.0615L3 19.8615C3 20.4216 3 20.7016 3.10899 20.9155C3.20487 21.1037 3.35785 21.2567 3.54601 21.3525C3.75992 21.4615 4.03995 21.4615 4.6 21.4615H19.4C19.9601 21.4615 20.2401 21.4615 20.454 21.3525C20.6422 21.2567 20.7951 21.1037 20.891 20.9155C21 20.7016 21 20.4216 21 19.8615V19.0615C21 18.5015 21 18.2215 20.891 18.0075C20.7951 17.8194 20.6422 17.6664 20.454 17.5705C20.2401 17.4615 19.9601 17.4615 19.4 17.4615H4.6C4.03995 17.4615 3.75992 17.4615 3.54601 17.5705C3.35785 17.6664 3.20487 17.8194 3.10899 18.0075C3 18.2215 3 18.5015 3 19.0615ZM11.6529 3.53867L4.25291 5.18311C3.80585 5.28246 3.58232 5.33213 3.41546 5.45234C3.26829 5.55837 3.15273 5.70243 3.08115 5.8691C3 6.05806 3 6.28705 3 6.74501L3 7.86154C3 8.42159 3 8.70162 3.10899 8.91553C3.20487 9.10369 3.35785 9.25667 3.54601 9.35254C3.75992 9.46154 4.03995 9.46154 4.6 9.46154H19.4C19.9601 9.46154 20.2401 9.46154 20.454 9.35254C20.6422 9.25667 20.7951 9.10369 20.891 8.91553C21 8.70162 21 8.42159 21 7.86154V6.74501C21 6.28705 21 6.05806 20.9188 5.8691C20.8473 5.70243 20.7317 5.55837 20.5845 5.45234C20.4177 5.33213 20.1942 5.28246 19.7471 5.18311L12.3471 3.53867C12.2176 3.50988 12.1528 3.49549 12.0874 3.48975C12.0292 3.48466 11.9708 3.48466 11.9126 3.48975C11.8472 3.49549 11.7824 3.50988 11.6529 3.53867Z" stroke="#D0D5DD" stroke-width="2" stroke-linecap="round" stroke-linejoin="round"/>
</svg>
