<?xml version="1.0" standalone="no"?>
<!DOCTYPE svg PUBLIC "-//W3C//DTD SVG 20010904//EN"
        "http://www.w3.org/TR/2001/REC-SVG-20010904/DTD/svg10.dtd">
<svg version="1.0" xmlns="http://www.w3.org/2000/svg"
     fill="rgba(255, 255, 255, 0.65)"
     width="256.000000pt" height="256.000000pt" viewBox="0 0 256.000000 256.000000"
     preserveAspectRatio="xMidYMid meet">

    <g transform="translate(0.000000,256.000000) scale(0.100000,-0.100000)"
       stroke="none">
        <path d="M584 2437 c-12 -7 -14 -85 -14 -507 0 -440 -2 -500 -16 -514 -18 -19
-45 -21 -62 -4 -9 9 -12 132 -12 494 0 265 -3 489 -6 498 -23 60 -158 -44
-188 -144 -23 -78 -24 -1147 -1 -1156 8 -4 50 16 96 46 99 64 139 81 170 73
68 -17 119 -90 119 -169 0 -28 5 -55 12 -62 9 -9 106 -12 375 -12 403 0 416 2
453 62 19 32 20 49 20 671 0 681 -1 691 -49 716 -24 13 -874 21 -897 8z"/>
        <path d="M2183 1623 c-37 -54 -89 -129 -115 -168 -63 -90 -61 -109 10 -113
l52 -3 0 -308 c0 -231 3 -311 13 -324 11 -15 28 -17 127 -15 l115 3 3 322 2
322 58 3 c44 2 58 7 60 20 2 10 -44 87 -103 172 -108 158 -130 186 -145 186
-5 0 -39 -44 -77 -97z"/>
        <path d="M1757 1203 c-4 -3 -7 -149 -7 -324 l0 -318 -57 -3 c-46 -2 -59 -7
-61 -20 -3 -16 207 -333 232 -350 6 -4 16 -6 21 -5 6 2 63 79 127 172 132 192
135 205 48 205 l-50 0 0 313 c0 230 -3 316 -12 325 -13 13 -229 18 -241 5z"/>
        <path d="M142 1123 c-110 -156 -119 -368 -30 -653 24 -76 31 -120 35 -218 3
-67 10 -125 14 -128 5 -3 149 -6 320 -7 263 -1 312 1 319 13 6 8 10 75 10 148
0 126 1 135 25 170 29 42 65 150 65 193 l0 29 305 0 c296 0 305 1 315 20 15
28 4 59 -23 65 -12 3 -204 4 -427 3 l-405 -3 2 -35 c17 -238 13 -280 -26 -280
-30 0 -35 16 -35 125 -1 87 -4 107 -28 158 -15 32 -42 77 -59 99 l-32 39 37
31 c53 44 79 100 74 160 -5 51 -37 98 -67 98 -21 0 -190 -113 -229 -153 -47
-48 -63 -97 -69 -213 -3 -57 -9 -104 -14 -104 -4 0 -19 14 -33 31 -21 25 -26
41 -26 88 0 31 7 83 15 114 20 78 21 237 1 237 -8 0 -23 -12 -34 -27z"/>
        <path d="M718 909 c-21 -12 -24 -49 -6 -67 17 -17 769 -17 786 0 17 17 15 44
-4 62 -13 14 -62 16 -387 16 -234 0 -378 -4 -389 -11z"/>
    </g>
</svg>
