<svg width="24" height="24" viewBox="0 0 24 24" fill="none" xmlns="http://www.w3.org/2000/svg">
<g clip-path="url(#clip0_132_1476)">
<path d="M16.9331 12.9558L15.4804 11.5031L19.3195 7.66405L19.8167 8.1612C20.1386 8.48314 20.6804 8.41972 20.9168 8.02578L23.8998 3.0541C24.0658 2.77744 24.0222 2.4233 23.794 2.19521L21.8053 0.206546C21.5772 -0.0215942 21.2231 -0.0651409 20.9464 0.100796L15.9748 3.08382C15.5824 3.31922 15.5165 3.861 15.8393 4.18387L16.3365 4.68103L12.4974 8.52012L11.0447 7.06747C11.5561 5.15695 11.0345 3.07964 9.5883 1.63337C7.77926 -0.175625 5.07116 -0.461936 2.95331 0.678856C2.75766 0.784278 2.62336 0.975949 2.59106 1.19584C2.55881 1.41573 2.63241 1.63791 2.78958 1.79509L5.42826 4.43376C5.70243 4.70793 5.70243 5.15399 5.42826 5.42807C5.15409 5.70224 4.70807 5.70229 4.4339 5.42807L1.79522 2.78935C1.63805 2.63218 1.41582 2.55854 1.19598 2.59083C0.976086 2.62308 0.784415 2.75743 0.678993 2.95308C-0.457486 5.06301 -0.181581 7.77289 1.6336 9.58802C3.07664 11.0311 5.15287 11.557 7.0677 11.0445L7.52586 11.5026L1.0313 17.9973C-0.343346 19.372 -0.34419 21.5937 1.0313 22.9692C2.40206 24.34 4.63241 24.34 6.00322 22.9692L12.4977 16.4745L12.956 16.9328C12.4447 18.8433 12.9662 20.9206 14.4124 22.3669C16.2215 24.1759 18.9296 24.4622 21.0474 23.3215C21.2431 23.216 21.3774 23.0244 21.4097 22.8045C21.4419 22.5846 21.3683 22.3624 21.2111 22.2052L18.5725 19.5665C18.2983 19.2924 18.2983 18.8463 18.5725 18.5722C18.8466 18.2981 19.2927 18.2981 19.5668 18.5722L22.2055 21.2109C22.3626 21.3681 22.5849 21.4416 22.8047 21.4094C23.0246 21.3772 23.2163 21.2428 23.3217 21.0472C24.4582 18.9373 24.1824 16.2274 22.3672 14.4122C20.9241 12.9692 18.8479 12.4433 16.9331 12.9558ZM21.1992 1.58907L22.4115 2.80135L20.1743 6.53005L17.4704 3.82631L21.1992 1.58907ZM17.3308 5.67538L18.3252 6.66969L14.4861 10.5088L13.4917 9.51448L17.3308 5.67538ZM5.00887 21.975C4.1864 22.7974 2.84813 22.7974 2.02561 21.975C1.20038 21.1497 1.19987 19.8175 2.02561 18.9917L8.52012 12.497L11.5034 15.4803L5.00887 21.975ZM22.4498 19.4666L20.5612 17.5779C19.7388 16.7556 18.4006 16.7556 17.5782 17.5779C16.7558 18.4003 16.7558 19.7385 17.5782 20.561L19.4668 22.4496C18.0319 22.8414 16.4895 22.4553 15.4068 21.3726C14.2609 20.2267 13.8718 18.4991 14.4156 16.9714C14.5066 16.7157 14.4423 16.4304 14.2503 16.2385L7.76206 9.75021C7.57053 9.55868 7.28544 9.49376 7.02912 9.58498C5.50138 10.1288 3.77386 9.73962 2.62791 8.59372C1.54519 7.511 1.15918 5.96873 1.55096 4.53379L3.43959 6.42243C4.26196 7.2448 5.60015 7.24475 6.42261 6.42243C7.24498 5.60006 7.24498 4.26187 6.42261 3.43941L4.53398 1.55077C5.96886 1.1589 7.51123 1.54501 8.59395 2.62772C9.73989 3.77367 10.129 5.50124 9.58521 7.02894C9.49418 7.28469 9.55849 7.56997 9.75044 7.76188L16.2387 14.2501C16.4306 14.4421 16.7159 14.5063 16.9716 14.4153C18.4993 13.8715 20.2269 14.2607 21.3728 15.4066C22.4556 16.4894 22.8416 18.0316 22.4498 19.4666Z" fill="#D0D5DD"/>
<path d="M9.1422 14.9992C8.86761 14.7247 8.42248 14.7247 8.14789 14.9992L3.85142 19.2958C3.57687 19.5704 3.57687 20.0155 3.85142 20.2901C4.12606 20.5647 4.57114 20.5647 4.84573 20.2901L9.14215 15.9935C9.4167 15.7189 9.4167 15.2738 9.1422 14.9992Z" fill="#F2F4F7"/>
</g>
<defs>
<clipPath id="clip0_132_1476">
<rect width="24" height="24" fill="white"/>
</clipPath>
</defs>
</svg>
