<svg width="22" height="19" viewBox="0 0 22 19" fill="none" xmlns="http://www.w3.org/2000/svg">
    <path d="M5 8.07693V12.0769M17 6.07693V10.0769M16 1.07693C18.4487 1.07693 19.7731 1.4517 20.4321 1.74238C20.5199 1.78109 20.5638 1.80044 20.6904 1.92131C20.7663 1.99375 20.9049 2.20633 20.9405 2.30502C21 2.46967 21 2.55967 21 2.73968V13.4881C21 14.3968 21 14.8512 20.8637 15.0848C20.7251 15.3224 20.5914 15.4328 20.3319 15.5241C20.0769 15.6139 19.562 15.5149 18.5322 15.3171C17.8114 15.1786 16.9565 15.0769 16 15.0769C13 15.0769 10 17.0769 6 17.0769C3.55129 17.0769 2.22687 16.7022 1.56788 16.4115C1.48012 16.3728 1.43624 16.3534 1.3096 16.2326C1.23369 16.1601 1.09512 15.9475 1.05947 15.8488C1 15.6842 1 15.5942 1 15.4142L1 4.66579C1 3.75702 1 3.30264 1.13628 3.06908C1.2749 2.8315 1.40859 2.72105 1.66806 2.62975C1.92314 2.53999 2.43803 2.63892 3.46783 2.83678C4.18862 2.97527 5.04348 3.07693 6 3.07693C9 3.07693 12 1.07693 16 1.07693ZM13.5 9.07693C13.5 10.4576 12.3807 11.5769 11 11.5769C9.61929 11.5769 8.5 10.4576 8.5 9.07693C8.5 7.69622 9.61929 6.57693 11 6.57693C12.3807 6.57693 13.5 7.69622 13.5 9.07693Z"
          stroke="white" stroke-width="2" stroke-linecap="round" stroke-linejoin="round"/>
</svg>
