<svg width="24" height="25" viewBox="0 0 24 25" fill="none" xmlns="http://www.w3.org/2000/svg">
<path d="M13.5295 9.12108C12.9571 9.52917 12.2566 9.76923 11.5 9.76923C9.567 9.76923 8 8.20222 8 6.26923C8 4.33623 9.567 2.76923 11.5 2.76923C12.753 2.76923 13.8522 3.42764 14.4705 4.41737M6 20.8564H8.61029C8.95063 20.8564 9.28888 20.8969 9.61881 20.9779L12.3769 21.6481C12.9753 21.7939 13.5988 21.8081 14.2035 21.6906L17.253 21.0973C18.0585 20.9404 18.7996 20.5547 19.3803 19.9897L21.5379 17.8909C22.154 17.2926 22.154 16.3217 21.5379 15.7223C20.9832 15.1827 20.1047 15.1219 19.4771 15.5795L16.9626 17.4141C16.6025 17.6773 16.1643 17.8191 15.7137 17.8191H13.2855L14.8311 17.819C15.7022 17.819 16.4079 17.1326 16.4079 16.2851V15.9784C16.4079 15.2747 15.9156 14.6612 15.2141 14.4911L12.8286 13.911C12.4404 13.8168 12.0428 13.7692 11.6431 13.7692C10.6783 13.7692 8.93189 14.568 8.93189 14.568L6 15.7941M20 7.26923C20 9.20222 18.433 10.7692 16.5 10.7692C14.567 10.7692 13 9.20222 13 7.26923C13 5.33623 14.567 3.76923 16.5 3.76923C18.433 3.76923 20 5.33623 20 7.26923ZM2 15.3692L2 21.1692C2 21.7293 2 22.0093 2.10899 22.2232C2.20487 22.4114 2.35785 22.5644 2.54601 22.6602C2.75992 22.7692 3.03995 22.7692 3.6 22.7692H4.4C4.96005 22.7692 5.24008 22.7692 5.45399 22.6602C5.64215 22.5644 5.79513 22.4114 5.89101 22.2232C6 22.0093 6 21.7293 6 21.1692V15.3692C6 14.8092 6 14.5291 5.89101 14.3152C5.79513 14.1271 5.64215 13.9741 5.45399 13.8782C5.24008 13.7692 4.96005 13.7692 4.4 13.7692L3.6 13.7692C3.03995 13.7692 2.75992 13.7692 2.54601 13.8782C2.35785 13.9741 2.20487 14.1271 2.10899 14.3152C2 14.5291 2 14.8092 2 15.3692Z" stroke="#D0D5DD" stroke-width="2" stroke-linecap="round" stroke-linejoin="round"/>
</svg>
