<svg width="24" height="25" viewBox="0 0 24 25" fill="none" xmlns="http://www.w3.org/2000/svg">
<path d="M13 5.53851C13 6.64308 10.5376 7.53851 7.5 7.53851C4.46243 7.53851 2 6.64308 2 5.53851M13 5.53851C13 4.43394 10.5376 3.53851 7.5 3.53851C4.46243 3.53851 2 4.43394 2 5.53851M13 5.53851V7.03851M2 5.53851V17.5385C2 18.6431 4.46243 19.5385 7.5 19.5385M7.5 11.5385C7.33145 11.5385 7.16468 11.5358 7 11.5304C4.19675 11.4385 2 10.5818 2 9.53851M7.5 15.5385C4.46243 15.5385 2 14.6431 2 13.5385M22 12.0385C22 13.1431 19.5376 14.0385 16.5 14.0385C13.4624 14.0385 11 13.1431 11 12.0385M22 12.0385C22 10.9339 19.5376 10.0385 16.5 10.0385C13.4624 10.0385 11 10.9339 11 12.0385M22 12.0385V19.5385C22 20.6431 19.5376 21.5385 16.5 21.5385C13.4624 21.5385 11 20.6431 11 19.5385V12.0385M22 15.7885C22 16.8931 19.5376 17.7885 16.5 17.7885C13.4624 17.7885 11 16.8931 11 15.7885" stroke="#D0D5DD" stroke-width="2" stroke-linecap="round" stroke-linejoin="round"/>
</svg>
