<svg width="24" height="25" viewBox="0 0 24 25" fill="none" xmlns="http://www.w3.org/2000/svg">
<path d="M8.4 3.9231H4.6C4.03995 3.9231 3.75992 3.9231 3.54601 4.03209C3.35785 4.12796 3.20487 4.28094 3.10899 4.46911C3 4.68302 3 4.96304 3 5.5231V9.3231C3 9.88315 3 10.1632 3.10899 10.3771C3.20487 10.5652 3.35785 10.7182 3.54601 10.8141C3.75992 10.9231 4.03995 10.9231 4.6 10.9231H8.4C8.96005 10.9231 9.24008 10.9231 9.45399 10.8141C9.64215 10.7182 9.79513 10.5652 9.89101 10.3771C10 10.1632 10 9.88315 10 9.3231V5.5231C10 4.96304 10 4.68302 9.89101 4.46911C9.79513 4.28094 9.64215 4.12796 9.45399 4.03209C9.24008 3.9231 8.96005 3.9231 8.4 3.9231Z" stroke="#D0D5DD" stroke-width="2" stroke-linecap="round" stroke-linejoin="round"/>
<path d="M19.4 3.9231H15.6C15.0399 3.9231 14.7599 3.9231 14.546 4.03209C14.3578 4.12796 14.2049 4.28094 14.109 4.46911C14 4.68302 14 4.96304 14 5.5231V9.3231C14 9.88315 14 10.1632 14.109 10.3771C14.2049 10.5652 14.3578 10.7182 14.546 10.8141C14.7599 10.9231 15.0399 10.9231 15.6 10.9231H19.4C19.9601 10.9231 20.2401 10.9231 20.454 10.8141C20.6422 10.7182 20.7951 10.5652 20.891 10.3771C21 10.1632 21 9.88315 21 9.3231V5.5231C21 4.96304 21 4.68302 20.891 4.46911C20.7951 4.28094 20.6422 4.12796 20.454 4.03209C20.2401 3.9231 19.9601 3.9231 19.4 3.9231Z" stroke="#D0D5DD" stroke-width="2" stroke-linecap="round" stroke-linejoin="round"/>
<path d="M19.4 14.9231H15.6C15.0399 14.9231 14.7599 14.9231 14.546 15.0321C14.3578 15.128 14.2049 15.2809 14.109 15.4691C14 15.683 14 15.963 14 16.5231V20.3231C14 20.8831 14 21.1632 14.109 21.3771C14.2049 21.5652 14.3578 21.7182 14.546 21.8141C14.7599 21.9231 15.0399 21.9231 15.6 21.9231H19.4C19.9601 21.9231 20.2401 21.9231 20.454 21.8141C20.6422 21.7182 20.7951 21.5652 20.891 21.3771C21 21.1632 21 20.8831 21 20.3231V16.5231C21 15.963 21 15.683 20.891 15.4691C20.7951 15.2809 20.6422 15.128 20.454 15.0321C20.2401 14.9231 19.9601 14.9231 19.4 14.9231Z" stroke="#D0D5DD" stroke-width="2" stroke-linecap="round" stroke-linejoin="round"/>
<path d="M8.4 14.9231H4.6C4.03995 14.9231 3.75992 14.9231 3.54601 15.0321C3.35785 15.128 3.20487 15.2809 3.10899 15.4691C3 15.683 3 15.963 3 16.5231V20.3231C3 20.8831 3 21.1632 3.10899 21.3771C3.20487 21.5652 3.35785 21.7182 3.54601 21.8141C3.75992 21.9231 4.03995 21.9231 4.6 21.9231H8.4C8.96005 21.9231 9.24008 21.9231 9.45399 21.8141C9.64215 21.7182 9.79513 21.5652 9.89101 21.3771C10 21.1632 10 20.8831 10 20.3231V16.5231C10 15.963 10 15.683 9.89101 15.4691C9.79513 15.2809 9.64215 15.128 9.45399 15.0321C9.24008 14.9231 8.96005 14.9231 8.4 14.9231Z" stroke="#D0D5DD" stroke-width="2" stroke-linecap="round" stroke-linejoin="round"/>
</svg>
