<svg width="24" height="24" viewBox="0 0 24 24" fill="none" xmlns="http://www.w3.org/2000/svg">
<path d="M12.3901 6.41251H6.39014C6.19122 6.41251 6.00046 6.49152 5.85981 6.63218C5.71915 6.77283 5.64014 6.96359 5.64014 7.16251C5.64014 7.36142 5.71915 7.55218 5.85981 7.69284C6.00046 7.83349 6.19122 7.91251 6.39014 7.91251H12.3901C12.589 7.91251 12.7798 7.83349 12.9205 7.69284C13.0611 7.55218 13.1401 7.36142 13.1401 7.16251C13.1401 6.96359 13.0611 6.77283 12.9205 6.63218C12.7798 6.49152 12.589 6.41251 12.3901 6.41251Z" fill="#D0D5DD"/>
<path fill-rule="evenodd" clip-rule="evenodd" d="M6.38994 6.21249H12.3899C12.6419 6.21249 12.8835 6.31258 13.0617 6.49074C13.2399 6.6689 13.3399 6.91054 13.3399 7.16249C13.3399 7.41445 13.2399 7.65609 13.0617 7.83425C12.8835 8.0124 12.6419 8.11249 12.3899 8.11249H6.38994C6.13799 8.11249 5.89635 8.0124 5.71819 7.83425C5.54003 7.65609 5.43994 7.41445 5.43994 7.16249C5.43994 6.91054 5.54003 6.6689 5.71819 6.49074C5.89635 6.31258 6.13799 6.21249 6.38994 6.21249ZM6.38994 6.41249H12.3899C12.5889 6.41249 12.7796 6.49151 12.9203 6.63216C13.0609 6.77282 13.1399 6.96358 13.1399 7.16249C13.1399 7.36141 13.0609 7.55217 12.9203 7.69282C12.7796 7.83348 12.5889 7.91249 12.3899 7.91249H6.38994C6.19103 7.91249 6.00026 7.83348 5.85961 7.69282C5.71896 7.55217 5.63994 7.36141 5.63994 7.16249C5.63994 6.96358 5.71896 6.77282 5.85961 6.63216C6.00026 6.49151 6.19103 6.41249 6.38994 6.41249Z" fill="#D0D5DD"/>
<path d="M12.3901 10.425H6.39014C6.19122 10.425 6.00046 10.504 5.85981 10.6447C5.71915 10.7853 5.64014 10.9761 5.64014 11.175C5.64014 11.3739 5.71915 11.5647 5.85981 11.7053C6.00046 11.846 6.19122 11.925 6.39014 11.925H12.3901C12.589 11.925 12.7798 11.846 12.9205 11.7053C13.0611 11.5647 13.1401 11.3739 13.1401 11.175C13.1401 10.9761 13.0611 10.7853 12.9205 10.6447C12.7798 10.504 12.589 10.425 12.3901 10.425Z" fill="#D0D5DD"/>
<path fill-rule="evenodd" clip-rule="evenodd" d="M6.38994 10.225H12.3899C12.6419 10.225 12.8835 10.3251 13.0617 10.5033C13.2399 10.6814 13.3399 10.923 13.3399 11.175C13.3399 11.427 13.2399 11.6686 13.0617 11.8468C12.8835 12.0249 12.6419 12.125 12.3899 12.125H6.38994C6.13799 12.125 5.89635 12.0249 5.71819 11.8468C5.54003 11.6686 5.43994 11.427 5.43994 11.175C5.43994 10.9231 5.54003 10.6814 5.71819 10.5033C5.89635 10.3251 6.13799 10.225 6.38994 10.225ZM6.38994 10.425H12.3899C12.5889 10.425 12.7796 10.504 12.9203 10.6447C13.0609 10.7853 13.1399 10.9761 13.1399 11.175C13.1399 11.3739 13.0609 11.5647 12.9203 11.7053C12.7796 11.846 12.5889 11.925 12.3899 11.925H6.38994C6.19103 11.925 6.00026 11.846 5.85961 11.7053C5.71896 11.5647 5.63994 11.3739 5.63994 11.175C5.63994 10.9761 5.71896 10.7853 5.85961 10.6447C6.00026 10.504 6.19103 10.425 6.38994 10.425Z" fill="#D0D5DD"/>
<path d="M12.3901 14.5275H6.39014C6.19122 14.5275 6.00046 14.6065 5.85981 14.7472C5.71915 14.8878 5.64014 15.0786 5.64014 15.2775C5.64014 15.4764 5.71915 15.6672 5.85981 15.8078C6.00046 15.9485 6.19122 16.0275 6.39014 16.0275H12.3901C12.589 16.0275 12.7798 15.9485 12.9205 15.8078C13.0611 15.6672 13.1401 15.4764 13.1401 15.2775C13.1401 15.0786 13.0611 14.8878 12.9205 14.7472C12.7798 14.6065 12.589 14.5275 12.3901 14.5275Z" fill="#D0D5DD"/>
<path fill-rule="evenodd" clip-rule="evenodd" d="M6.38994 14.3275H12.3899C12.6419 14.3275 12.8835 14.4276 13.0617 14.6057C13.2399 14.7839 13.3399 15.0255 13.3399 15.2775C13.3399 15.5294 13.2399 15.7711 13.0617 15.9492C12.8835 16.1274 12.6419 16.2275 12.3899 16.2275H6.38994C6.13799 16.2275 5.89635 16.1274 5.71819 15.9492C5.54003 15.7711 5.43994 15.5294 5.43994 15.2775C5.43994 15.0255 5.54003 14.7839 5.71819 14.6057C5.89635 14.4276 6.13799 14.3275 6.38994 14.3275ZM6.38994 14.5275H12.3899C12.5889 14.5275 12.7796 14.6065 12.9203 14.7472C13.0609 14.8878 13.1399 15.0786 13.1399 15.2775C13.1399 15.4764 13.0609 15.6672 12.9203 15.8078C12.7796 15.9485 12.5889 16.0275 12.3899 16.0275H6.38994C6.19103 16.0275 6.00026 15.9485 5.85961 15.8078C5.71896 15.6672 5.63994 15.4764 5.63994 15.2775C5.63994 15.0786 5.71896 14.8878 5.85961 14.7472C6.00026 14.6065 6.19103 14.5275 6.38994 14.5275Z" fill="#D0D5DD"/>
<path d="M19.4022 0.749908H4.59723C4.21248 0.75089 3.8317 0.827769 3.47671 0.976143C3.12172 1.12452 2.79948 1.34147 2.52847 1.61457C2.25746 1.88768 2.04299 2.21156 1.89735 2.56768C1.7517 2.92381 1.67775 3.30516 1.67973 3.68991V21.9824C1.67924 22.1701 1.72872 22.3546 1.82309 22.5168C1.91747 22.6791 2.05333 22.8133 2.21673 22.9057C2.38013 22.9981 2.56518 23.0453 2.75287 23.0426C2.94056 23.0398 3.12413 22.9871 3.28473 22.8899L6.04473 21.2324C6.08636 21.2065 6.13443 21.1927 6.18348 21.1927C6.23252 21.1927 6.28059 21.2065 6.32223 21.2324L9.38973 23.0699C9.55107 23.1727 9.7384 23.2274 9.92973 23.2274C10.1222 23.2264 10.3111 23.1747 10.4772 23.0774L13.5597 21.2324C13.6014 21.2065 13.6494 21.1927 13.6985 21.1927C13.7475 21.1927 13.7956 21.2065 13.8372 21.2324L16.5822 22.8899C16.7434 22.9856 16.9273 23.0362 17.1147 23.0362C17.3021 23.0362 17.4861 22.9856 17.6472 22.8899C17.8086 22.7976 17.9427 22.6645 18.0362 22.5038C18.1297 22.3432 18.1792 22.1608 18.1797 21.9749V9.32991H20.5347C21.0075 9.32793 21.4604 9.13924 21.7947 8.80491C22.1291 8.47059 22.3178 8.01771 22.3197 7.54491V3.68991C22.3217 3.30516 22.2477 2.92381 22.1021 2.56768C21.9565 2.21156 21.742 1.88768 21.471 1.61457C21.2 1.34147 20.8777 1.12452 20.5227 0.976143C20.1678 0.827769 19.787 0.75089 19.4022 0.749908ZM16.6797 21.1949L14.6097 19.9499C14.334 19.7862 14.0192 19.6998 13.6985 19.6998C13.3778 19.6998 13.063 19.7862 12.7872 19.9499L9.93723 21.6599L7.09473 19.9424C6.81568 19.7755 6.49634 19.688 6.17118 19.6893C5.84603 19.6906 5.52741 19.7807 5.24973 19.9499L3.17973 21.2024V3.68991C3.17674 3.50187 3.2112 3.31513 3.2811 3.14054C3.351 2.96596 3.45494 2.80703 3.58686 2.67301C3.71879 2.53899 3.87606 2.43256 4.04952 2.35992C4.22299 2.28728 4.40917 2.24988 4.59723 2.24991H16.9872C16.7892 2.62723 16.6838 3.04628 16.6797 3.47241V21.1949ZM20.8197 7.54491C20.8197 7.6205 20.7897 7.69299 20.7363 7.74643C20.6828 7.79988 20.6103 7.82991 20.5347 7.82991H18.1797V3.49491C18.1767 3.33248 18.2061 3.17109 18.2662 3.02017C18.3263 2.86924 18.4159 2.7318 18.5297 2.61589C18.6436 2.49997 18.7793 2.40791 18.9291 2.34507C19.0789 2.28223 19.2398 2.24988 19.4022 2.24991C19.7782 2.24991 20.1387 2.39925 20.4046 2.66508C20.6704 2.93092 20.8197 3.29146 20.8197 3.66741V7.54491Z" fill="#D0D5DD"/>
</svg>
