<svg fill="#000000" xmlns="http://www.w3.org/2000/svg"  viewBox="0 0 32 32" class="w-6 h-6"><path d="M 15.875 4 L 15.78125 4.03125 L 4.78125 6.46875 L 4 6.65625 L 4 25.34375 L 4.78125 25.53125 L 15.78125 27.96875 L 15.875 28 L 18 28 L 18 25 L 28 25 L 28 7 L 18 7 L 18 4 Z M 16 6.03125 L 16 25.96875 L 6 23.78125 L 6 8.21875 Z M 18 9 L 26 9 L 26 23 L 18 23 L 18 21 L 20 21 L 20 19 L 18 19 L 18 18 L 20 18 L 20 16 L 18 16 L 18 15 L 20 15 L 20 13 L 18 13 L 18 12 L 20 12 L 20 10 L 18 10 Z M 21 10 L 21 12 L 25 12 L 25 10 Z M 14.15625 11 L 11.875 11.28125 L 10.625 13.96875 C 10.492188 14.355469 10.394531 14.648438 10.34375 14.84375 L 10.3125 14.84375 C 10.234375 14.519531 10.160156 14.238281 10.0625 14 L 9.4375 11.6875 L 7.3125 11.9375 L 7.21875 12 L 9 16 L 7 20 L 9.15625 20.25 L 10.03125 17.78125 C 10.136719 17.46875 10.222656 17.214844 10.25 17.0625 L 10.28125 17.0625 C 10.339844 17.386719 10.378906 17.628906 10.4375 17.75 L 11.78125 20.6875 L 14.21875 21 L 11.5625 15.96875 Z M 21 13 L 21 15 L 25 15 L 25 13 Z M 21 16 L 21 18 L 25 18 L 25 16 Z M 21 19 L 21 21 L 25 21 L 25 19 Z"/></svg>