<svg width="24" height="25" viewBox="0 0 24 25" fill="none" xmlns="http://www.w3.org/2000/svg">
<path d="M9 21.6923V14.2923C9 13.7323 9 13.4522 9.109 13.2383C9.20487 13.0502 9.35785 12.8972 9.54601 12.8013C9.75993 12.6923 10.04 12.6923 10.6 12.6923H13.4C13.9601 12.6923 14.2401 12.6923 14.454 12.8013C14.6422 12.8972 14.7951 13.0502 14.891 13.2383C15 13.4522 15 13.7323 15 14.2923V21.6923M2 10.1923L11.04 3.41232C11.3843 3.15413 11.5564 3.02503 11.7454 2.97527C11.9123 2.93134 12.0877 2.93134 12.2546 2.97527C12.4436 3.02503 12.6157 3.15413 12.96 3.41232L22 10.1923M4 8.69232V18.4923C4 19.6124 4 20.1725 4.21799 20.6003C4.40974 20.9766 4.7157 21.2826 5.09202 21.4743C5.51985 21.6923 6.0799 21.6923 7.2 21.6923H16.8C17.9201 21.6923 18.4802 21.6923 18.908 21.4743C19.2843 21.2826 19.5903 20.9766 19.782 20.6003C20 20.1725 20 19.6124 20 18.4923V8.69232L13.92 4.13232C13.2315 3.61593 12.8872 3.35774 12.5091 3.25821C12.1754 3.17036 11.8246 3.17036 11.4909 3.25821C11.1128 3.35774 10.7685 3.61593 10.08 4.13232L4 8.69232Z" stroke="#D0D5DD" stroke-width="2" stroke-linecap="round" stroke-linejoin="round"/>
</svg>
