<?xml version="1.0" standalone="no"?>
<!DOCTYPE svg PUBLIC "-//W3C//DTD SVG 20010904//EN"
        "http://www.w3.org/TR/2001/REC-SVG-20010904/DTD/svg10.dtd">
<svg version="1.0" xmlns="http://www.w3.org/2000/svg"
     width="640.000000pt" height="640.000000pt" viewBox="0 0 640.000000 640.000000"
     fill="rgba(255,255,255,0.65)"
     preserveAspectRatio="xMidYMid meet">

  <g transform="translate(0.000000,640.000000) scale(0.100000,-0.100000)"
      stroke="none">
    <path d="M1739 4561 c-68 -8 -99 -23 -127 -63 -14 -19 -18 -60 -23 -233 -3
-116 -10 -222 -16 -236 -14 -31 -66 -77 -96 -84 -12 -2 -108 -6 -213 -8 -179
-3 -193 -5 -228 -27 -61 -37 -67 -64 -66 -285 0 -107 4 -204 9 -217 12 -31 48
-67 78 -79 13 -5 111 -9 216 -9 296 0 294 -1 301 299 5 187 7 205 28 244 42
75 64 81 298 87 301 7 295 1 295 305 0 298 -1 299 -240 307 -82 3 -180 2 -216
-1z"/>
    <path d="M308 3913 c-10 -2 -18 -9 -18 -14 0 -6 -4 -8 -9 -5 -14 9 -48 -36
-61 -79 -8 -26 -11 -102 -8 -220 3 -176 4 -182 28 -212 14 -17 35 -36 48 -42
14 -7 101 -11 231 -11 l208 0 39 34 39 34 3 213 c3 235 0 248 -56 285 -31 21
-43 22 -230 22 -108 0 -205 -3 -214 -5z m35 -24 c7 0 -1 -7 -18 -14 -16 -8
-24 -14 -17 -15 7 0 10 -4 7 -10 -14 -22 15 -8 35 17 l21 27 144 -1 c117 0
150 -4 170 -17 14 -9 31 -14 37 -10 7 5 3 10 -12 16 -12 5 -20 11 -17 14 10
10 61 -18 81 -44 18 -23 19 -43 19 -218 -1 -105 -4 -200 -7 -210 -4 -14 -16
-19 -46 -20 -47 -1 -53 -5 -44 -29 6 -15 8 -16 16 -1 10 17 48 22 48 6 0 -5
-4 -11 -10 -11 -19 -3 -25 -4 -35 -10 -5 -3 -89 -7 -187 -8 l-176 -2 -14 27
c-10 23 -20 28 -50 29 -41 0 -59 11 -34 21 9 3 16 12 16 20 0 17 -12 18 -28 2
-9 -9 -11 29 -9 170 1 144 5 185 16 191 8 5 11 16 8 26 -4 10 -3 14 4 9 8 -4
9 1 4 15 -4 12 -2 21 4 21 6 0 11 -6 12 -12 0 -10 2 -10 6 0 2 6 12 12 21 12
15 0 15 2 2 11 -12 9 -12 10 3 5 10 -3 24 -6 30 -7z m-36 -516 c3 -7 -3 -9
-17 -6 -29 8 -37 25 -9 21 12 -1 24 -8 26 -15z"/>
    <path d="M380 3860 c-16 -5 8 -8 72 -9 55 -1 99 3 103 9 7 12 -137 12 -175 0z"/>
    <path d="M578 3863 c7 -3 16 -2 19 1 4 3 -2 6 -13 5 -11 0 -14 -3 -6 -6z"/>
    <path d="M625 3860 c4 -6 11 -8 16 -4 5 3 16 0 24 -6 8 -7 20 -10 27 -7 8 4 7
6 -4 6 -10 1 -18 6 -18 11 0 6 -12 10 -26 10 -14 0 -23 -4 -19 -10z"/>
    <path d="M736 3845 c4 -8 10 -12 15 -9 14 8 10 24 -6 24 -9 0 -12 -6 -9 -15z"/>
    <path d="M730 3728 c0 -4 4 -8 9 -8 6 0 12 4 15 8 3 5 -1 9 -9 9 -8 0 -15 -4
-15 -9z"/>
    <path d="M241 3693 c1 -34 2 -35 9 -13 11 36 11 50 0 50 -5 0 -10 -17 -9 -37z"/>
    <path d="M754 3696 c-3 -7 -4 -33 -1 -57 l4 -44 1 48 c1 26 7 47 12 47 6 0 10
5 10 10 0 15 -20 12 -26 -4z"/>
    <path d="M733 3640 c0 -25 2 -35 4 -22 2 12 2 32 0 45 -2 12 -4 2 -4 -23z"/>
    <path d="M752 3560 c0 -19 2 -27 5 -17 2 9 2 25 0 35 -3 9 -5 1 -5 -18z"/>
    <path d="M772 3550 c0 -19 2 -27 5 -17 2 9 2 25 0 35 -3 9 -5 1 -5 -18z"/>
    <path d="M370 3490 c0 -5 5 -10 10 -10 6 0 10 5 10 10 0 6 -4 10 -10 10 -5 0
-10 -4 -10 -10z"/>
    <path d="M765 3460 c-3 -5 -1 -18 4 -27 9 -16 10 -14 11 10 0 28 -5 34 -15 17z"/>
    <path d="M370 3449 c0 -5 5 -7 10 -4 6 3 10 8 10 11 0 2 -4 4 -10 4 -5 0 -10
-5 -10 -11z"/>
    <path d="M640 3450 c0 -5 5 -10 11 -10 5 0 7 5 4 10 -3 6 -8 10 -11 10 -2 0
-4 -4 -4 -10z"/>
    <path d="M300 3443 c0 -11 35 -32 53 -33 11 0 17 -8 17 -25 0 -14 5 -25 11
-25 6 0 8 9 4 20 -4 11 -2 20 4 20 6 0 11 5 11 11 0 5 -5 7 -11 4 -5 -4 -18 0
-27 8 -18 15 -62 29 -62 20z"/>
    <path d="M695 3442 c-11 -2 -24 -11 -28 -19 -5 -8 -17 -12 -30 -9 -12 3 -16 3
-9 0 6 -3 12 -14 12 -25 0 -17 4 -15 30 11 21 22 38 30 55 28 13 -2 25 1 27 6
4 11 -28 15 -57 8z"/>
    <path d="M463 3413 c26 -2 68 -2 95 0 26 2 4 3 -48 3 -52 0 -74 -1 -47 -3z"/>
    <path d="M1736 3778 c-14 -20 -16 -127 -16 -953 0 -511 3 -940 6 -952 11 -40
61 -45 428 -42 265 2 346 5 364 16 21 13 22 18 22 177 0 140 -2 166 -17 177
-12 11 -62 14 -217 14 l-201 0 -3 233 -2 232 179 0 c238 0 224 -11 223 181 -1
190 13 179 -223 179 l-179 0 0 200 0 200 203 0 c261 0 240 -17 238 197 -1 105
-4 135 -17 147 -13 14 -63 16 -394 16 l-379 0 -15 -22z"/>
    <path d="M2886 3784 c-21 -20 -24 -36 -36 -174 -11 -134 -43 -471 -65 -680
-15 -137 -28 -270 -74 -765 -11 -115 -23 -228 -25 -251 -9 -74 -3 -77 188 -78
196 -1 189 -4 200 101 3 38 13 136 21 218 8 83 19 197 25 255 31 318 41 417
50 530 16 178 20 211 30 205 4 -3 11 -29 15 -58 3 -28 19 -137 35 -242 16
-104 41 -269 55 -365 75 -507 93 -612 106 -625 10 -10 49 -15 141 -17 106 -3
130 0 143 13 19 19 21 27 126 737 46 309 86 562 90 562 3 0 11 -53 18 -117 88
-910 110 -1133 116 -1160 7 -32 33 -36 200 -35 142 1 151 2 168 23 12 15 16
32 12 53 -3 17 -12 101 -20 186 -8 85 -21 225 -30 310 -8 85 -20 205 -25 265
-6 61 -17 173 -25 250 -8 77 -28 282 -45 455 -16 173 -33 332 -36 353 -11 67
-10 67 -258 67 -200 0 -224 -2 -238 -17 -9 -11 -22 -68 -32 -148 -9 -71 -21
-161 -26 -200 -5 -38 -14 -106 -20 -150 -56 -428 -100 -784 -100 -811 0 -39
-17 -55 -24 -22 -3 13 -12 82 -21 153 -8 72 -37 303 -65 515 -27 212 -56 444
-66 515 -10 83 -22 136 -32 148 -13 15 -38 17 -238 17 -189 0 -225 -2 -238
-16z"/>
    <path d="M4577 3783 c-16 -18 -17 -79 -17 -964 0 -761 3 -949 13 -963 11 -16
32 -18 170 -19 127 -2 159 1 171 13 12 13 15 138 20 830 l6 815 103 0 c85 -1
109 -4 144 -23 86 -45 117 -125 111 -286 -3 -88 -7 -107 -30 -147 -33 -55 -60
-74 -132 -93 -102 -27 -126 -52 -126 -133 0 -56 20 -116 133 -403 36 -91 95
-241 131 -335 37 -93 72 -181 78 -193 21 -42 53 -50 190 -48 114 1 129 3 142
21 25 32 22 45 -39 180 -7 16 -28 64 -45 105 -17 41 -35 84 -40 95 -5 11 -32
76 -61 145 -28 69 -57 139 -65 155 -27 59 -74 180 -74 190 0 6 15 17 34 23 51
19 140 88 174 135 16 23 42 76 57 117 24 64 28 94 32 210 12 333 -101 503
-376 567 -49 11 -148 17 -376 20 -297 5 -311 4 -328 -14z"/>
  </g>
</svg>
