<svg width="24" height="25" viewBox="0 0 24 25" fill="none" xmlns="http://www.w3.org/2000/svg">
<path d="M14 9.15387H11.5C10.6716 9.15387 10 9.82544 10 10.6539C10 11.4823 10.6716 12.1539 11.5 12.1539H12.5C13.3284 12.1539 14 12.8254 14 13.6539C14 14.4823 13.3284 15.1539 12.5 15.1539H10M12 8.15387V9.15387M12 15.1539V16.1539M18 12.1539H18.01M6 12.1539H6.01M2 8.35387L2 15.9539C2 17.074 2 17.634 2.21799 18.0618C2.40973 18.4382 2.71569 18.7441 3.09202 18.9359C3.51984 19.1539 4.07989 19.1539 5.2 19.1539L18.8 19.1539C19.9201 19.1539 20.4802 19.1539 20.908 18.9359C21.2843 18.7441 21.5903 18.4382 21.782 18.0619C22 17.634 22 17.074 22 15.9539V8.35387C22 7.23377 22 6.67371 21.782 6.24589C21.5903 5.86957 21.2843 5.5636 20.908 5.37186C20.4802 5.15387 19.9201 5.15387 18.8 5.15387L5.2 5.15387C4.0799 5.15387 3.51984 5.15387 3.09202 5.37186C2.7157 5.5636 2.40973 5.86956 2.21799 6.24589C2 6.67371 2 7.23376 2 8.35387ZM18.5 12.1539C18.5 12.43 18.2761 12.6539 18 12.6539C17.7239 12.6539 17.5 12.43 17.5 12.1539C17.5 11.8777 17.7239 11.6539 18 11.6539C18.2761 11.6539 18.5 11.8777 18.5 12.1539ZM6.5 12.1539C6.5 12.43 6.27614 12.6539 6 12.6539C5.72386 12.6539 5.5 12.43 5.5 12.1539C5.5 11.8777 5.72386 11.6539 6 11.6539C6.27614 11.6539 6.5 11.8777 6.5 12.1539Z" stroke="#D0D5DD" stroke-width="2" stroke-linecap="round" stroke-linejoin="round"/>
</svg>
