<?xml version="1.0" encoding="UTF-8"?>
<svg width="700pt" height="700pt" fill="rgba(255, 255, 255, 0.65)" version="1.1" viewBox="0 0 700 700" xmlns="http://www.w3.org/2000/svg" xmlns:xlink="http://www.w3.org/1999/xlink">
 <defs>
  <symbol id="o" overflow="visible">
   <path d="m29.312-1.75c-1.5117 0.78125-3.0898 1.3711-4.7344 1.7656-1.6367 0.40625-3.3398 0.60938-5.1094 0.60938-5.3125 0-9.5273-1.4844-12.641-4.4531-3.1055-2.9688-4.6562-7-4.6562-12.094s1.5508-9.125 4.6562-12.094c3.1133-2.9688 7.3281-4.4531 12.641-4.4531 1.7695 0 3.4727 0.19922 5.1094 0.59375 1.6445 0.39844 3.2227 0.99219 4.7344 1.7812v6.5938c-1.5312-1.0391-3.0391-1.8008-4.5156-2.2812-1.4805-0.48828-3.0391-0.73438-4.6719-0.73438-2.9375 0-5.2461 0.94531-6.9219 2.8281-1.6797 1.875-2.5156 4.4648-2.5156 7.7656 0 3.293 0.83594 5.8828 2.5156 7.7656 1.6758 1.875 3.9844 2.8125 6.9219 2.8125 1.6328 0 3.1914-0.23828 4.6719-0.71875 1.4766-0.48828 2.9844-1.2539 4.5156-2.2969z"/>
  </symbol>
  <symbol id="h" overflow="visible">
   <path d="m21.453-17.406c-0.67969-0.3125-1.3516-0.53906-2.0156-0.6875-0.65625-0.15625-1.3203-0.23438-1.9844-0.23438-1.9688 0-3.4844 0.63281-4.5469 1.8906-1.0547 1.2617-1.5781 3.0703-1.5781 5.4219v11.016h-7.6562v-23.922h7.6562v3.9219c0.97656-1.5625 2.1016-2.7031 3.375-3.4219 1.2812-0.71875 2.8125-1.0781 4.5938-1.0781 0.25 0 0.52344 0.011719 0.82812 0.03125 0.30078 0.023438 0.73438 0.070312 1.2969 0.14062z"/>
  </symbol>
  <symbol id="a" overflow="visible">
   <path d="m27.562-12.031v2.1875h-17.891c0.1875 1.793 0.83203 3.1367 1.9375 4.0312 1.1133 0.89844 2.6719 1.3438 4.6719 1.3438 1.6016 0 3.25-0.23438 4.9375-0.70312 1.6875-0.47656 3.4219-1.2031 5.2031-2.1719v5.8906c-1.8047 0.6875-3.6094 1.2031-5.4219 1.5469-1.8125 0.35156-3.6211 0.53125-5.4219 0.53125-4.3359 0-7.7031-1.0977-10.109-3.2969-2.3984-2.207-3.5938-5.2969-3.5938-9.2656 0-3.9062 1.1758-6.9727 3.5312-9.2031 2.3633-2.2383 5.6094-3.3594 9.7344-3.3594 3.7578 0 6.7695 1.1367 9.0312 3.4062 2.2578 2.2617 3.3906 5.2812 3.3906 9.0625zm-7.8594-2.5312c0-1.457-0.42969-2.6289-1.2812-3.5156-0.84375-0.89453-1.9492-1.3438-3.3125-1.3438-1.4922 0-2.6992 0.41797-3.625 1.25-0.91797 0.83594-1.4922 2.0391-1.7188 3.6094z"/>
  </symbol>
  <symbol id="g" overflow="visible">
   <path d="m14.391-10.766c-1.5938 0-2.793 0.27344-3.5938 0.8125-0.80469 0.54297-1.2031 1.3398-1.2031 2.3906 0 0.96875 0.32031 1.7305 0.96875 2.2812 0.64453 0.54297 1.5469 0.8125 2.7031 0.8125 1.4375 0 2.6445-0.51562 3.625-1.5469 0.98828-1.0312 1.4844-2.3203 1.4844-3.875v-0.875zm11.688-2.8906v13.656h-7.7031v-3.5469c-1.0312 1.4492-2.1875 2.5078-3.4688 3.1719s-2.8398 1-4.6719 1c-2.4805 0-4.4961-0.72266-6.0469-2.1719-1.543-1.4453-2.3125-3.3203-2.3125-5.625 0-2.8125 0.96094-4.8672 2.8906-6.1719 1.9375-1.3125 4.9688-1.9688 9.0938-1.9688h4.5156v-0.60938c0-1.207-0.48047-2.0938-1.4375-2.6562-0.94922-0.5625-2.4375-0.84375-4.4688-0.84375-1.6367 0-3.1562 0.16797-4.5625 0.5-1.4062 0.32422-2.7188 0.8125-3.9375 1.4688v-5.8281c1.6445-0.40625 3.2891-0.70703 4.9375-0.90625 1.6562-0.20703 3.3047-0.3125 4.9531-0.3125 4.3203 0 7.4375 0.85547 9.3438 2.5625 1.9141 1.6992 2.875 4.4609 2.875 8.2812z"/>
  </symbol>
  <symbol id="f" overflow="visible">
   <path d="m12.031-30.719v6.7969h7.875v5.4688h-7.875v10.141c0 1.1172 0.21875 1.8711 0.65625 2.2656 0.4375 0.38672 1.3125 0.57812 2.625 0.57812h3.9375v5.4688h-6.5625c-3.0234 0-5.1641-0.62891-6.4219-1.8906-1.2617-1.2578-1.8906-3.3984-1.8906-6.4219v-10.141h-3.7969v-5.4688h3.7969v-6.7969z"/>
  </symbol>
  <symbol id="e" overflow="visible">
   <path d="m19.953-20.422v-12.812h7.6875v33.234h-7.6875v-3.4531c-1.0547 1.4062-2.2148 2.4375-3.4844 3.0938-1.2734 0.65625-2.7422 0.98438-4.4062 0.98438-2.9492 0-5.3711-1.1719-7.2656-3.5156-1.8867-2.3438-2.8281-5.3594-2.8281-9.0469s0.94141-6.7031 2.8281-9.0469c1.8945-2.3438 4.3164-3.5156 7.2656-3.5156 1.6562 0 3.1172 0.33594 4.3906 1 1.2812 0.65625 2.4453 1.6836 3.5 3.0781zm-5.0469 15.484c1.6445 0 2.8945-0.59766 3.75-1.7969 0.86328-1.1953 1.2969-2.9297 1.2969-5.2031 0-2.2812-0.43359-4.0195-1.2969-5.2188-0.85547-1.1953-2.1055-1.7969-3.75-1.7969-1.625 0-2.8711 0.60156-3.7344 1.7969-0.85547 1.1992-1.2812 2.9375-1.2812 5.2188 0 2.2734 0.42578 4.0078 1.2812 5.2031 0.86328 1.1992 2.1094 1.7969 3.7344 1.7969z"/>
  </symbol>
  <symbol id="d" overflow="visible">
   <path d="m16.406-4.9375c1.6328 0 2.8828-0.59766 3.75-1.7969 0.86328-1.1953 1.2969-2.9297 1.2969-5.2031 0-2.2812-0.43359-4.0195-1.2969-5.2188-0.86719-1.1953-2.1172-1.7969-3.75-1.7969-1.6367 0-2.8906 0.60547-3.7656 1.8125-0.875 1.1992-1.3125 2.9336-1.3125 5.2031 0 2.2617 0.4375 3.9961 1.3125 5.2031 0.875 1.1992 2.1289 1.7969 3.7656 1.7969zm-5.0781-15.484c1.0508-1.3945 2.2188-2.4219 3.5-3.0781 1.2812-0.66406 2.7539-1 4.4219-1 2.9453 0 5.3672 1.1719 7.2656 3.5156 1.8945 2.3438 2.8438 5.3594 2.8438 9.0469s-0.94922 6.7031-2.8438 9.0469c-1.8984 2.3438-4.3203 3.5156-7.2656 3.5156-1.668 0-3.1406-0.33594-4.4219-1s-2.4492-1.6914-3.5-3.0781v3.4531h-7.6562v-33.234h7.6562z"/>
  </symbol>
  <symbol id="c" overflow="visible">
   <path d="m0.53125-23.922h7.6562l6.4219 16.234 5.4688-16.234h7.6562l-10.062 26.188c-1.0117 2.6641-2.1953 4.5234-3.5469 5.5781-1.3438 1.0625-3.1211 1.5938-5.3281 1.5938h-4.4219v-5.0156h2.3906c1.3008 0 2.2422-0.21094 2.8281-0.625 0.59375-0.40625 1.0547-1.1484 1.3906-2.2188l0.20312-0.65625z"/>
  </symbol>
  <symbol id="b" overflow="visible">
   <path d="m4.0156-31.891h8.2188v31.891h-8.2188z"/>
  </symbol>
  <symbol id="n" overflow="visible">
   <path d="m23-23.172v6.2344c-1.0312-0.71875-2.0742-1.2422-3.125-1.5781-1.043-0.34375-2.125-0.51562-3.25-0.51562-2.1367 0-3.8047 0.625-5 1.875-1.1875 1.2422-1.7812 2.9805-1.7812 5.2188 0 2.2305 0.59375 3.9688 1.7812 5.2188 1.1953 1.25 2.8633 1.875 5 1.875 1.1953 0 2.332-0.17578 3.4062-0.53125 1.0703-0.36328 2.0625-0.89453 2.9688-1.5938v6.2656c-1.1875 0.4375-2.4023 0.76562-3.6406 0.98438-1.2305 0.22656-2.4648 0.34375-3.7031 0.34375-4.3125 0-7.6875-1.1094-10.125-3.3281s-3.6562-5.2969-3.6562-9.2344c0-3.9453 1.2188-7.0234 3.6562-9.2344 2.4375-2.2188 5.8125-3.3281 10.125-3.3281 1.25 0 2.4844 0.10938 3.7031 0.32812s2.4297 0.55469 3.6406 1z"/>
  </symbol>
  <symbol id="m" overflow="visible">
   <path d="m15.062-19.031c-1.6992 0-2.9961 0.60938-3.8906 1.8281-0.88672 1.2188-1.3281 2.9766-1.3281 5.2656 0 2.293 0.44141 4.0469 1.3281 5.2656 0.89453 1.2188 2.1914 1.8281 3.8906 1.8281 1.6641 0 2.9375-0.60938 3.8125-1.8281 0.88281-1.2188 1.3281-2.9727 1.3281-5.2656 0-2.2891-0.44531-4.0469-1.3281-5.2656-0.875-1.2188-2.1484-1.8281-3.8125-1.8281zm0-5.4688c4.1133 0 7.3281 1.1094 9.6406 3.3281s3.4688 5.2969 3.4688 9.2344c0 3.9297-1.1562 7.0078-3.4688 9.2344-2.3125 2.2188-5.5273 3.3281-9.6406 3.3281-4.1367 0-7.3711-1.1094-9.7031-3.3281-2.3242-2.2266-3.4844-5.3047-3.4844-9.2344 0-3.9375 1.1602-7.0156 3.4844-9.2344 2.332-2.2188 5.5664-3.3281 9.7031-3.3281z"/>
  </symbol>
  <symbol id="l" overflow="visible">
   <path d="m27.734-14.562v14.562h-7.7031v-11.156c0-2.0625-0.046875-3.4844-0.14062-4.2656-0.085937-0.78125-0.24219-1.3594-0.46875-1.7344-0.30469-0.5-0.71094-0.88281-1.2188-1.1562-0.51172-0.28125-1.0938-0.42188-1.75-0.42188-1.5938 0-2.8516 0.61719-3.7656 1.8438-0.90625 1.2305-1.3594 2.9375-1.3594 5.125v11.766h-7.6562v-23.922h7.6562v3.5c1.1445-1.3945 2.3633-2.4219 3.6562-3.0781 1.3008-0.66406 2.7383-1 4.3125-1 2.7578 0 4.8516 0.85156 6.2812 2.5469 1.4375 1.6875 2.1562 4.1523 2.1562 7.3906z"/>
  </symbol>
  <symbol id="k" overflow="visible">
   <path d="m3.6719-23.922h7.6562v23.922h-7.6562zm0-9.3125h7.6562v6.2344h-7.6562z"/>
  </symbol>
  <symbol id="j" overflow="visible">
   <path d="m14.906-18.953c-1.625 0-2.8711 0.60156-3.7344 1.7969-0.85547 1.1992-1.2812 2.9375-1.2812 5.2188 0 2.2734 0.42578 4.0078 1.2812 5.2031 0.86328 1.1992 2.1094 1.7969 3.7344 1.7969 1.6445 0 2.8945-0.59766 3.75-1.7969 0.86328-1.1953 1.2969-2.9297 1.2969-5.2031 0-2.2812-0.43359-4.0195-1.2969-5.2188-0.85547-1.1953-2.1055-1.7969-3.75-1.7969zm5.0469 15.5c-1.0547 1.4062-2.2148 2.4375-3.4844 3.0938-1.2734 0.65625-2.7422 0.98438-4.4062 0.98438-2.9492 0-5.3711-1.1719-7.2656-3.5156-1.8867-2.3438-2.8281-5.3594-2.8281-9.0469s0.94141-6.6914 2.8281-9.0156c1.8945-2.332 4.3164-3.5 7.2656-3.5 1.6641 0 3.1328 0.32812 4.4062 0.98438 1.2695 0.64844 2.4297 1.6797 3.4844 3.0938v-3.5469h7.6875v33.016h-7.6875z"/>
  </symbol>
  <symbol id="i" overflow="visible">
   <path d="m3.4219-9.3125v-14.609h7.6875v2.3906c0 1.293-0.011719 2.918-0.03125 4.875-0.011719 1.9609-0.015625 3.2656-0.015625 3.9219 0 1.9297 0.046875 3.3125 0.14062 4.1562 0.10156 0.84375 0.28125 1.4609 0.53125 1.8438 0.3125 0.5 0.71875 0.88672 1.2188 1.1562 0.50781 0.27344 1.0938 0.40625 1.75 0.40625 1.5938 0 2.8438-0.60938 3.75-1.8281 0.91406-1.2266 1.375-2.9297 1.375-5.1094v-11.812h7.6406v23.922h-7.6406v-3.4531c-1.1562 1.3867-2.3828 2.4141-3.6719 3.0781-1.2812 0.66406-2.6992 1-4.25 1-2.7734 0-4.8828-0.84766-6.3281-2.5469-1.4375-1.6953-2.1562-4.1602-2.1562-7.3906z"/>
  </symbol>
 </defs>
 <g>
  <path d="m417.94 349.3v-33.977c0-33.59 11.211-66.07 31.594-91.5 20.664-25.984 30.234-58.586 26.961-91.738-5.6367-59.285-52.695-107.14-111.91-113.81-73.629-9.5391-143.02 52.199-141.69 126.37 0 29.352 9.7383 56.934 28.168 79.766 20 24.781 31.016 57.996 31.016 93.523v31.367c0 14.164 10.227 25.945 23.672 28.457v15.457c0 24.406 19.855 44.262 44.262 44.262 24.41 0 44.262-19.859 44.262-44.262v-15.457c13.449-2.5117 23.672-14.289 23.672-28.457zm-177.55-204.66c-1.168-58.699 50.875-111.01 109.55-109.67 55.016-0.70312 104.15 44.133 109.14 98.812 2.832 28.633-5.4219 56.746-23.215 79.133-17.602 21.953-29.031 48.602-33.383 76.852l-105.09 0.003907c-4.4453-28.77-15.66-55.223-32.715-76.348-15.887-19.691-24.289-43.469-24.289-68.781zm59.184 204.66c-0.078125-8.0039 0.27734-34.496-0.41797-42.031h101.63c-0.60938 5.2812-0.24219 36.117-0.33594 42.031 0 6.3398-5.1562 11.492-11.492 11.492h-74.453c-7.5273 0.94531-14.891-3.3203-14.93-11.492zm77.199 43.914c-0.92969 35.297-52.605 35.277-53.523 0v-14.918h53.523z"/>
  <path d="m306.19 142.82c4.832 0 8.75-3.9141 8.75-8.75 0-9.4688 3.7031-18.328 10.426-24.969 20.992-21.684 59.609-5.4883 59.699 24.48 0.21484 15.832-10.242 29.906-25.43 34.211-10.992 3.1367-18.379 12.656-18.379 23.695v17.688c0 4.8359 3.918 8.75 8.75 8.75 4.832 0 8.75-3.9141 8.75-8.75v-17.688c0-3.1367 2.2812-5.8945 5.6641-6.8633 57.668-17.383 46.406-101.17-13.695-103.12-28.457-1.0117-53.922 24.023-53.285 52.559 0 4.8438 3.918 8.7578 8.75 8.7578z"/>
  <path d="m350 227.88c-4.832 0-8.75 3.9141-8.75 8.75v9.1445c0 4.8359 3.918 8.75 8.75 8.75 4.832 0 8.75-3.9141 8.75-8.75v-9.1445c0-4.8359-3.918-8.75-8.75-8.75z"/>
  <path d="m545.91 192.6c-10.145-4.5781-56.438-18.441-55.902 0.38281 0.21875 4.8281 4.4844 8.6484 9.1406 8.3398 58.188-3.8594 105.77 54.59 94.219 111.68-4.5039 24.301-17.812 45.484-37.438 59.609-19.5 13.906-35.199 33.109-45.617 55.363l-83.516-25.145c0.30859-8.8633 5.8672-25.438-7.3477-26.586-4.8242-0.054688-8.7969 3.8203-8.8477 8.6484-0.14062 12.664-2.0625 25.508-5.707 38.195l-7.5273 26.164c-3.4414 11.977 1.9531 24.469 12.25 30.34l-3.4805 12.109c-6.0117 20.918 5.7969 42.965 26.32 49.133 20.129 6.5352 43.02-6.3789 48.406-26.855l3.4375-11.961c11.801 1.043 23.312-7.4258 26.402-18.867l8.1523-28.344c7.9922-27.789 24.773-51.918 47.277-67.965 69.637-48.797 58.039-161.46-20.223-194.24zm-92.406 329.82c-16.414 9.3789-36.316-7.9844-30.559-25.891l3.2266-11.23 41.152 12.391c-2.4023 8.6875-4.7656 20.605-13.82 24.73zm48.523-72.461-8.1523 28.344c-1.8047 6.1133-7.8594 7.5234-13.223 5.1133-0.003906 0-0.003906-0.003906-0.007812-0.003906-11.387-3.4258-48.707-14.664-60.703-18.277-4.5391-1.3594-7.1211-6.3242-5.7617-11.059 1.6992-5.7656 8.3008-28.426 9.4844-33.918l80.238 24.156c-0.625 1.8828-1.3281 3.7305-1.875 5.6445z"/>
  <path d="m496.06 351.72 4.2422-14.758c0.60938-2.1289 2.582-3.4883 4.9805-3.4609 52.98-0.88281 63.711-74.797 14.031-91.602-23.957-8.0977-51.336 7.1445-57.773 31.566-2.9805 11.117 13.449 15.828 16.816 4.8359 4.0039-15.16 20.781-24.727 35.688-19.723 30.648 10.309 24.195 57.488-8.8281 57.422-10.234 0-18.949 6.4531-21.73 16.125l-4.2422 14.758c-2.9961 11.062 13.406 15.871 16.816 4.8359z"/>
  <path d="m483.48 363.79c-4.6172-1.3164-9.4922 1.3398-10.828 5.9883l-2.1953 7.6289c-1.3359 4.6406 1.3477 9.4922 5.9883 10.828 4.5195 1.332 9.5078-1.3047 10.828-5.9883 0 0 2.1953-7.6289 2.1953-7.6289 1.3359-4.6406-1.3438-9.4961-5.9883-10.828z"/>
  <path d="m302.64 449.25c-5.7148-19.648-13.688-44.117-13.234-64.359-0.054688-4.8281-4.0273-8.7031-8.8477-8.6484-13.223 1.1484-7.6484 17.723-7.3477 26.586l-83.516 25.145c-10.414-22.254-26.109-41.449-45.582-55.336-19.66-14.148-32.969-35.332-37.48-59.668-11.543-57.066 36.055-115.49 94.23-111.64 11.301 0.51172 12.383-16.809 0.79297-17.484-69.371-4.3633-126.42 64.059-112.23 132.36 5.332 28.754 21.117 53.84 44.488 70.664 22.473 16.023 39.25 40.152 47.246 67.941l8.1523 28.344c3.0859 11.441 14.605 19.914 26.398 18.867l3.4375 11.965c5.3906 20.48 28.27 33.383 48.402 26.863 20.523-6.1758 32.332-28.223 26.324-49.141l-3.4844-12.113c10.301-5.8711 15.695-18.367 12.25-30.34zm-96.512 29.062c-1.2969-4.3125-8.543-30.363-10.027-33.984l80.238-24.156c1.0781 5.4102 7.9102 28.215 9.4844 33.918 1.3594 4.7344-1.2266 9.6992-5.7695 11.059-13.492 4.0664-47.645 14.344-60.711 18.285-5.2695 2.4102-11.496 0.93359-13.215-5.1211zm56.379 45.773c-11.176 3.5703-23.551-3.6328-26.539-14.945l-3.2891-11.445 41.152-12.395 3.2305 11.234c3.375 11.762-3.1523 24.117-14.555 27.551z"/>
  <path d="m238.47 273.47c-6.4414-24.414-33.812-39.676-57.777-31.566-49.539 16.422-38.926 91.055 14.035 91.602 2.1875-0.39453 4.3633 1.332 4.9766 3.4609l4.2422 14.758c3.4062 11.027 19.812 6.2344 16.816-4.8359l-4.2422-14.758c-2.7969-9.75-11.656-16.23-21.961-16.125-32.902-0.74219-39.168-46.941-8.5938-57.422 14.91-4.9961 31.684 4.5547 35.688 19.723 3.3477 11.004 19.82 6.2656 16.816-4.8359z"/>
  <path d="m216.52 363.79c-4.6445 1.332-7.3281 6.1875-5.9883 10.828l2.1953 7.6289c1.3203 4.6875 6.3086 7.3242 10.828 5.9883 4.6445-1.332 7.3281-6.1875 5.9883-10.828l-2.1953-7.6289c-1.3359-4.6484-6.1797-7.2969-10.828-5.9883z"/>
  <use x="70" y="691.25" xlink:href="#o"/>
  <use x="102.109375" y="691.25" xlink:href="#h"/>
  <use x="123.683594" y="691.25" xlink:href="#a"/>
  <use x="153.355469" y="691.25" xlink:href="#g"/>
  <use x="182.878906" y="691.25" xlink:href="#f"/>
  <use x="203.792969" y="691.25" xlink:href="#a"/>
  <use x="233.464844" y="691.25" xlink:href="#e"/>
  <use x="280.011719" y="691.25" xlink:href="#d"/>
  <use x="311.328125" y="691.25" xlink:href="#c"/>
  <use x="355.078125" y="691.25" xlink:href="#b"/>
  <use x="371.359375" y="691.25" xlink:href="#n"/>
  <use x="397.292969" y="691.25" xlink:href="#m"/>
  <use x="427.347656" y="691.25" xlink:href="#l"/>
  <use x="458.496094" y="691.25" xlink:href="#k"/>
  <use x="473.492188" y="691.25" xlink:href="#j"/>
  <use x="504.808594" y="691.25" xlink:href="#i"/>
 </g>
</svg>
