<svg width="20" height="21" viewBox="0 0 20 21" fill="none" xmlns="http://www.w3.org/2000/svg">
<path d="M6 13.3077V15.3077M10 9.30774V15.3077M14 5.30774V15.3077M5.8 19.3077H14.2C15.8802 19.3077 16.7202 19.3077 17.362 18.9808C17.9265 18.6931 18.3854 18.2342 18.673 17.6697C19 17.028 19 16.1879 19 14.5077V6.10774C19 4.42758 19 3.5875 18.673 2.94577C18.3854 2.38128 17.9265 1.92234 17.362 1.63472C16.7202 1.30774 15.8802 1.30774 14.2 1.30774H5.8C4.11984 1.30774 3.27976 1.30774 2.63803 1.63472C2.07354 1.92234 1.6146 2.38128 1.32698 2.94577C1 3.5875 1 4.42758 1 6.10774V14.5077C1 16.1879 1 17.028 1.32698 17.6697C1.6146 18.2342 2.07354 18.6931 2.63803 18.9808C3.27976 19.3077 4.11984 19.3077 5.8 19.3077Z" stroke="#D0D5DD" stroke-width="2" stroke-linecap="round" stroke-linejoin="round"/>
</svg>
