<svg width="24" height="25" viewBox="0 0 24 25" fill="none" xmlns="http://www.w3.org/2000/svg">
<path d="M6.50014 17.8461H17.3294C18.2793 17.8461 18.7543 17.8461 19.1414 17.6745C19.4827 17.5232 19.7748 17.2794 19.9847 16.9707C20.2228 16.6205 20.3078 16.1532 20.4777 15.2186L21.8285 7.78924C21.8874 7.46531 21.9169 7.30334 21.8714 7.17687C21.8315 7.06592 21.7536 6.97264 21.6516 6.91352C21.5353 6.84613 21.3707 6.84613 21.0414 6.84613H5.00014M2 2.84613H3.3164C3.55909 2.84613 3.68044 2.84613 3.77858 2.89046C3.86507 2.92953 3.93867 2.99241 3.99075 3.07176C4.04984 3.16178 4.06876 3.28164 4.10662 3.52136L6.89338 21.1709C6.93124 21.4106 6.95016 21.5305 7.00925 21.6205C7.06133 21.6998 7.13493 21.7627 7.22142 21.8018C7.31956 21.8461 7.44091 21.8461 7.6836 21.8461H19" stroke="#CCCCCC" stroke-width="2" stroke-linecap="round" stroke-linejoin="round"/>
</svg>
