<svg width="24" height="25" viewBox="0 0 24 25" fill="none" xmlns="http://www.w3.org/2000/svg">
<path d="M5.52 2.87077L3.96 4.95077C3.65102 5.36275 3.49652 5.56874 3.50011 5.74117C3.50323 5.89121 3.57358 6.03192 3.69175 6.12445C3.82754 6.23077 4.08503 6.23077 4.6 6.23077H19.4C19.915 6.23077 20.1725 6.23077 20.3083 6.12445C20.4264 6.03192 20.4968 5.89121 20.4999 5.74117C20.5035 5.56874 20.349 5.36275 20.04 4.95077L18.48 2.87077M5.52 2.87077C5.696 2.63611 5.784 2.51878 5.89552 2.43415C5.9943 2.3592 6.10616 2.30327 6.22539 2.26922C6.36 2.23077 6.50667 2.23077 6.8 2.23077H17.2C17.4933 2.23077 17.64 2.23077 17.7746 2.26922C17.8938 2.30327 18.0057 2.3592 18.1045 2.43415C18.216 2.51878 18.304 2.63611 18.48 2.87077M5.52 2.87077L3.64 5.37744C3.40254 5.69405 3.28381 5.85236 3.1995 6.0267C3.12469 6.18139 3.07012 6.34509 3.03715 6.51373C3 6.70379 3 6.90167 3 7.29744L3 19.0308C3 20.1509 3 20.7109 3.21799 21.1388C3.40973 21.5151 3.71569 21.821 4.09202 22.0128C4.51984 22.2308 5.07989 22.2308 6.2 22.2308L17.8 22.2308C18.9201 22.2308 19.4802 22.2308 19.908 22.0128C20.2843 21.821 20.5903 21.5151 20.782 21.1388C21 20.7109 21 20.1509 21 19.0308V7.29744C21 6.90167 21 6.70379 20.9628 6.51373C20.9299 6.34509 20.8753 6.18139 20.8005 6.0267C20.7162 5.85236 20.5975 5.69405 20.36 5.37744L18.48 2.87077M16 10.2308C16 11.2916 15.5786 12.3091 14.8284 13.0592C14.0783 13.8093 13.0609 14.2308 12 14.2308C10.9391 14.2308 9.92172 13.8093 9.17157 13.0592C8.42143 12.3091 8 11.2916 8 10.2308" stroke="#D0D5DD" stroke-width="2" stroke-linecap="round" stroke-linejoin="round"/>
</svg>
