<?xml version="1.0" standalone="no"?>
<!DOCTYPE svg PUBLIC "-//W3C//DTD SVG 20010904//EN"
        "http://www.w3.org/TR/2001/REC-SVG-20010904/DTD/svg10.dtd">
<svg version="1.0" xmlns="http://www.w3.org/2000/svg"
     fill="rgba(255, 255, 255, 0.65)"
     width="256.000000pt" height="256.000000pt" viewBox="0 0 256.000000 256.000000"
     preserveAspectRatio="xMidYMid meet">

    <g transform="translate(0.000000,256.000000) scale(0.100000,-0.100000)"
       stroke="none">
        <path d="M210 2291 c-82 -25 -145 -87 -181 -177 -21 -52 -23 -75 -23 -199 0
-130 3 -146 32 -232 50 -148 190 -408 224 -419 19 -6 327 134 361 163 22 21
22 59 -2 186 -11 56 -24 165 -30 242 -9 134 -11 142 -51 222 -84 169 -209 250
-330 214z"/>
        <path d="M1585 2008 c-83 -16 -174 -66 -241 -132 -185 -186 -189 -476 -9 -665
149 -156 372 -194 566 -95 28 14 55 22 59 17 4 -4 37 -45 73 -89 l67 -82 -36
-27 c-43 -33 -66 -81 -56 -119 10 -36 432 -556 452 -556 21 0 40 20 40 41 0
10 -72 106 -160 215 -88 108 -160 200 -160 205 0 4 47 44 105 89 l105 81 32
-37 c18 -20 39 -45 46 -55 31 -44 92 -44 92 0 0 21 -208 264 -235 275 -38 14
-83 6 -120 -24 -21 -16 -41 -30 -45 -30 -8 0 -140 165 -140 175 0 4 14 23 31
43 45 51 86 145 101 230 42 246 -136 495 -386 541 -69 13 -111 13 -181 -1z
m259 -106 c91 -42 149 -100 194 -190 35 -72 37 -81 37 -172 0 -91 -2 -100 -37
-172 -45 -91 -103 -147 -196 -191 -61 -29 -76 -32 -162 -32 -86 0 -101 3 -162
32 -93 44 -151 100 -196 191 -35 72 -37 81 -37 171 0 87 3 102 32 163 40 85
97 147 172 186 78 42 122 52 213 48 61 -3 92 -11 142 -34z m470 -921 c10 -11
16 -24 15 -29 -5 -13 -196 -162 -208 -162 -5 0 -16 11 -25 25 -18 28 -22 23
109 133 66 56 84 61 109 33z"/>
        <path d="M1463 1773 c-117 -109 -134 -285 -42 -420 36 -51 116 -110 131 -95
33 33 58 277 39 377 -12 62 -58 167 -77 172 -5 2 -28 -14 -51 -34z"/>
        <path d="M1157 1816 c-37 -36 -70 -83 -98 -140 -41 -84 -42 -87 -55 -253 -7
-92 -20 -199 -28 -238 -21 -93 -20 -138 2 -157 33 -30 341 -170 360 -164 10 3
39 42 64 85 l47 80 -55 31 c-72 40 -162 133 -201 206 -54 104 -68 159 -68 274
0 113 20 190 70 279 14 24 24 46 21 48 -2 3 -29 -20 -59 -51z"/>
        <path d="M504 1271 c-84 -37 -159 -73 -168 -80 -32 -27 -14 -76 62 -170 123
-152 338 -78 359 124 9 87 -39 196 -85 194 -9 0 -85 -31 -168 -68z"/>
        <path d="M891 918 c-54 -57 -64 -184 -22 -267 57 -111 207 -144 300 -65 41 34
111 141 111 169 0 12 -8 29 -17 37 -21 17 -320 148 -339 148 -7 0 -22 -10 -33
-22z"/>
    </g>
</svg>
