<svg width="24" height="24" viewBox="0 0 24 24" fill="none" xmlns="http://www.w3.org/2000/svg">
<path d="M21.7494 9C21.6153 9 21.4798 8.96411 21.3568 8.88867L12.0001 3.13074L2.64306 8.88867C2.29003 9.10583 1.82787 8.99561 1.61144 8.64294C1.39428 8.29028 1.50414 7.82849 1.85717 7.61133L11.6072 1.61133C11.8481 1.46265 12.1521 1.46265 12.3931 1.61133L22.1434 7.61133C22.4957 7.82849 22.6056 8.29028 22.3888 8.64294C22.2474 8.87329 22.0013 9 21.7494 9Z" fill="#D0D5DD"/>
<path d="M20.25 22.5H3.75C3.33582 22.5 3 22.1642 3 21.75V9.75C3 9.33582 3.33582 9 3.75 9C4.16418 9 4.5 9.33582 4.5 9.75V21H19.5V9.75C19.5 9.33582 19.8354 9 20.25 9C20.6646 9 21 9.33582 21 9.75V21.75C21 22.1642 20.6646 22.5 20.25 22.5Z" fill="#D0D5DD"/>
<path d="M16.894 11.362C16.8788 11.3526 12.3357 9.07904 12.3357 9.07904C12.1248 8.97357 11.8758 8.97357 11.6648 9.07904C11.6648 9.07904 7.12193 11.3519 7.10559 11.362C6.88477 11.4986 6.75 11.74 6.75 12V17.25C6.75 17.5342 6.9104 17.7938 7.16455 17.9209L11.6646 20.1709C11.77 20.2236 11.885 20.25 12 20.25C12.115 20.25 12.23 20.2236 12.3354 20.1709L16.8354 17.9209C17.0896 17.7938 17.25 17.5342 17.25 17.25V12C17.25 11.74 17.1152 11.4986 16.894 11.362V11.362ZM12.0003 10.5886L14.8229 11.9999L12 13.4114L9.17734 12L12.0003 10.5886ZM8.25 13.2136L11.25 14.7136V18.2864L8.25 16.7864V13.2136ZM15.75 16.7864L12.75 18.2864V14.7136L15.75 13.2136V16.7864Z" fill="#D0D5DD"/>
</svg>
