<svg id="Layer_1" data-name="Layer 1" xmlns="http://www.w3.org/2000/svg" width="690" height="350" viewBox="0 0 690 350">
  <title>qt_BanHang</title>
  <rect width="690" height="350" style="fill: #fff;opacity: 0"/>
  <g>
    <rect id="Rectangle_15864" data-name="Rectangle 15864" x="143" y="275" width="22" height="2" style="fill: #b4c8b1"/>
    <g id="Group_27161" data-name="Group 27161">
      <rect id="Rectangle_15422" data-name="Rectangle 15422" x="387" y="43" width="48" height="48" style="fill: #fff;fill-opacity: 0"/>
      <g id="_031-business-and-finance" data-name=" 031-business-and-finance">
        <path id="Rectangle_15461" data-name="Rectangle 15461" d="M392.25,45h31.5A2.22,2.22,0,0,1,426,47.2h0V86.8a2.22,2.22,0,0,1-2.25,2.2h-31.5A2.22,2.22,0,0,1,390,86.8h0V47.2a2.22,2.22,0,0,1,2.25-2.2Z" style="fill: #2ca01c"/>
        <g id="Group_12372" data-name="Group 12372" style="opacity: 0.5">
          <path id="Path_11120" data-name="Path 11120" d="M396,72h12v2H396Z" style="fill: #fff"/>
          <path id="Path_11120-4" data-name="Path 11120-4" d="M396,76h12v2H396Z" style="fill: #fff"/>
        </g>
      </g>
      <g id="_035-shipping-and-delivery-6" data-name=" 035-shipping-and-delivery-6">
        <path id="Path_11124" data-name="Path 11124" d="M434,70V87.92A1.1,1.1,0,0,1,432.9,89H407.09A1.09,1.09,0,0,1,406,87.91V70Z" style="fill: #fb0"/>
        <path id="Path_11126" data-name="Path 11126" d="M423,66h11v4H423Z" style="fill: #e59033"/>
        <path id="Path_11127" data-name="Path 11127" d="M433.69,66h-28l3.36-5h21.28Z" style="fill: #fb0"/>
        <path id="Path_11128" data-name="Path 11128" d="M406,66h11v4H406Z" style="fill: #e59033"/>
        <path id="Path_11129" data-name="Path 11129" d="M423,70.33V75l-3-2.47L417,75V66h6Z" style="fill: #fff"/>
      </g>
      <path id="Path_11115" data-name="Path 11115" d="M409,84h2v2h-2Z" style="fill: #e59033"/>
      <path id="Path_11116" data-name="Path 11116" d="M406,84h2v2h-2Z" style="fill: #e59033"/>
      <g id="Group_27118" data-name="Group 27118">
        <path id="Path_30323" data-name="Path 30323" d="M406.69,60a5.86,5.86,0,0,1-5.18,3.27,6,6,0,0,1,0-12,5.83,5.83,0,0,1,5.12,3.15" style="fill: none;stroke: #fff;stroke-linecap: round;stroke-linejoin: round;stroke-width: 2px"/>
        <line id="Line_1148" data-name="Line 1148" x1="407" y1="51" x2="407" y2="55" style="fill: none;stroke: #fff;stroke-linecap: round;stroke-miterlimit: 10;stroke-width: 2px"/>
        <line id="Line_1149" data-name="Line 1149" x1="403" y1="55" x2="407" y2="55" style="fill: none;stroke: #fff;stroke-linecap: round;stroke-miterlimit: 10;stroke-width: 2px"/>
      </g>
      <path id="Path_30328" data-name="Path 30328" d="M434,77h-3.06l-1.68,4.46-4.06-1.54-1.92,3.84-3-1.82L417,87.44V89" style="fill: none;stroke: #fff;stroke-width: 2px"/>
    </g>
    <g id="Group_27162" data-name="Group 27162">
      <rect id="Rectangle_15422-2" data-name="Rectangle 15422-2" x="52" y="139" width="48" height="48" style="fill: #fff;fill-opacity: 0"/>
      <g id="_035-shipping-and-delivery-6-2" data-name=" 035-shipping-and-delivery-6-2">
        <g id="Group_26725" data-name="Group 26725">
          <path id="Path_11124-2" data-name="Path 11124-2" d="M96,155v28.35A1.65,1.65,0,0,1,94.35,185H55.64A1.66,1.66,0,0,1,54,183.34V155Z" style="fill: #fb0"/>
          <path id="Path_11126-2" data-name="Path 11126-2" d="M79,148H96v7H79Z" style="fill: #e59033"/>
          <path id="Path_11127-2" data-name="Path 11127-2" d="M96.41,148h-42l6-7h30Z" style="fill: #fb0"/>
          <path id="Path_11128-2" data-name="Path 11128-2" d="M54,148H71v7H54Z" style="fill: #e59033"/>
          <path id="Path_11129-2" data-name="Path 11129-2" d="M79,154.62v6.62l-4-3.31-4,3.31V148h8Z" style="fill: #fff"/>
        </g>
        <g id="Group_26726" data-name="Group 26726">
          <path id="Path_11130" data-name="Path 11130" d="M76,157.81v25.38A1.83,1.83,0,0,1,74.17,185H55.83A1.83,1.83,0,0,1,54,183.19V157.81A1.83,1.83,0,0,1,55.83,156H74.17a1.84,1.84,0,0,1,1.64,1,1.75,1.75,0,0,1,.19.81Z" style="fill: #2ca01c"/>
          <path id="Path_11131" data-name="Path 11131" d="M75.56,157A35.39,35.39,0,0,1,56,185h-.21A1.81,1.81,0,0,1,54,183.19V157.81A1.81,1.81,0,0,1,55.81,156H73.94A1.83,1.83,0,0,1,75.56,157Z" style="fill: #47b138"/>
          <path id="Path_11132" data-name="Path 11132" d="M71,156v5.46l-1.5-1.82L68,161.46V156Z" style="fill: #fff"/>
          <path id="Path_11133" data-name="Path 11133" d="M59.94,170.11a.9.9,0,0,1-.64-.26L57.47,168l1.29-1.29,1.18,1.18,3-3,1.29,1.28-3.65,3.65A.9.9,0,0,1,59.94,170.11Z" style="fill: #fff"/>
          <path id="Path_11134" data-name="Path 11134" d="M59.94,180.13a.91.91,0,0,1-.64-.27L57.47,178l1.29-1.29,1.18,1.18,3-3,1.29,1.29-3.65,3.64A.91.91,0,0,1,59.94,180.13Z" style="fill: #fff"/>
          <g id="Group_12373" data-name="Group 12373">
            <path id="Path_11135" data-name="Path 11135" d="M65,167h8v2H65Z" style="fill: #82d577"/>
            <path id="Path_11136" data-name="Path 11136" d="M65,177h8v2H65Z" style="fill: #82d577"/>
            <path id="Path_11137" data-name="Path 11137" d="M65,174h8v2H65Z" style="fill: #82d577"/>
            <path id="Path_11138" data-name="Path 11138" d="M65,164h2v2H65Z" style="fill: #82d577"/>
            <path id="Path_11139" data-name="Path 11139" d="M70,164h3v2H70Z" style="fill: #82d577"/>
          </g>
        </g>
      </g>
    </g>
    <g id="Group_27163" data-name="Group 27163">
      <g id="_031-business-and-finance-2" data-name=" 031-business-and-finance-2">
        <path id="Rectangle_15461-2" data-name="Rectangle 15461-2" d="M412.25,226h31.5a2.22,2.22,0,0,1,2.25,2.2h0v39.6a2.22,2.22,0,0,1-2.25,2.2h-31.5a2.22,2.22,0,0,1-2.25-2.2h0V228.2a2.22,2.22,0,0,1,2.25-2.2Z" style="fill: #2ca01c"/>
        <path id="Path_11131-2" data-name="Path 11131-2" d="M445.68,227.52c-2.12,18.31-14.33,34.34-32.34,42.48H413a2.9,2.9,0,0,1-3-2.75v-38.5a2.9,2.9,0,0,1,3-2.75h30A3,3,0,0,1,445.68,227.52Z" style="fill: #47b138"/>
        <g id="Group_12372-2" data-name="Group 12372-2" style="opacity: 0.5">
          <path id="Path_11120-3" data-name="Path 11120-3" d="M415,249h13v2H415Z" style="fill: #fff"/>
          <path id="Path_11120-6" data-name="Path 11120-6" d="M415,253h13v2H415Z" style="fill: #fff"/>
        </g>
        <path id="Path_30329" data-name="Path 30329" d="M422.58,229.24l1.56,2.2,2.44-1.13.25,2.68,2.68.24-1.13,2.45,2.2,1.56-2.2,1.55,1.14,2.45-2.69.24-.24,2.69L424.14,243l-1.56,2.21L421,243l-2.45,1.13-.24-2.69-2.69-.24,1.14-2.45-2.21-1.55,2.2-1.55-1.13-2.45,2.69-.24.24-2.69,2.45,1.13Z" style="fill: #fff"/>
        <line id="Line_1157" data-name="Line 1157" x1="420.28" y1="239.24" x2="424.28" y2="235.24" style="fill: none;stroke: #2ca01c;stroke-linecap: round;stroke-linejoin: round;stroke-width: 2px"/>
        <path id="Rectangle_15817" data-name="Rectangle 15817" d="M420.28,234.24h0a1,1,0,0,1,1,1h0a1,1,0,0,1-1,1h0a1,1,0,0,1-1-1h0A1,1,0,0,1,420.28,234.24Z" style="fill: #2ca01c"/>
        <path id="Rectangle_15818" data-name="Rectangle 15818" d="M424.28,238.24h0a1,1,0,0,1,1,1h0a1,1,0,0,1-1,1h0a1,1,0,0,1-1-1h0A1,1,0,0,1,424.28,238.24Z" style="fill: #2ca01c"/>
      </g>
      <g id="_035-shipping-and-delivery-6-3" data-name=" 035-shipping-and-delivery-6-3">
        <path id="Path_11124-3" data-name="Path 11124-3" d="M453,251v17.92a1.1,1.1,0,0,1-1.1,1.08H426.09a1.09,1.09,0,0,1-1.09-1.09V251Z" style="fill: #fb0"/>
        <path id="Path_11126-3" data-name="Path 11126-3" d="M442,247h11v4H442Z" style="fill: #e59033"/>
        <path id="Path_11127-3" data-name="Path 11127-3" d="M452.69,247h-28l3.36-5h21.28Z" style="fill: #fb0"/>
        <path id="Path_11128-3" data-name="Path 11128-3" d="M425,247h11v4H425Z" style="fill: #e59033"/>
        <path id="Path_11129-3" data-name="Path 11129-3" d="M442,251.33V256l-3-2.47L436,256v-9h6Z" style="fill: #fff"/>
      </g>
      <path id="Path_11115-2" data-name="Path 11115-2" d="M428,265h2v2h-2Z" style="fill: #e59033"/>
      <path id="Path_11116-2" data-name="Path 11116-2" d="M425,265h2v2h-2Z" style="fill: #e59033"/>
    </g>
    <g id="Group_27164" data-name="Group 27164">
      <rect id="Rectangle_15422-3" data-name="Rectangle 15422-3" x="536" y="43" width="48" height="48" style="fill: #fff;fill-opacity: 0"/>
      <g id="Mobile_credit_card" data-name="Mobile credit card">
        <rect id="Rectangle_15468" data-name="Rectangle 15468" x="556" y="45" width="26" height="44" rx="3.03" style="fill: #2ca01c"/>
        <path id="Path_29795" data-name="Path 29795" d="M578.24,48h-4s-.68,1.72-1.52,2h-9.1c-.84-.28-1.52-2-1.52-2h-2.39a.76.76,0,0,0-.76.76V85.24a.76.76,0,0,0,.76.76h18.48a.76.76,0,0,0,.76-.76V48.76a.76.76,0,0,0-.76-.76Z" style="fill: #9edb9e"/>
        <path id="Path_29800" data-name="Path 29800" d="M549,50h-9v3h9v2l4.85-3.5L549,48Z" style="fill: #2ca01c"/>
        <path id="Path_29807" data-name="Path 29807" d="M559,67.79V85.24a.76.76,0,0,0,.76.76h17.45A18.21,18.21,0,0,1,559,67.81Z" style="fill: #7fba7f"/>
        <g id="Group_27132" data-name="Group 27132">
          <path id="Path_29801" data-name="Path 29801" d="M538,63v2h18V60H541.21A3.13,3.13,0,0,0,538,63Z" style="fill: #fb0"/>
          <path id="Path_29802" data-name="Path 29802" d="M556,69V83H541.21A3.13,3.13,0,0,1,538,80V69Z" style="fill: #fb0"/>
          <path id="Path_29803" data-name="Path 29803" d="M538,65h18v4H538Z" style="fill: #e59033"/>
          <path id="Path_29804" data-name="Path 29804" d="M550,76V74.52A1.52,1.52,0,0,0,548.48,73H547v3Z" style="fill: #fff0dc"/>
          <path id="Path_29805" data-name="Path 29805" d="M547,79h1.48A1.52,1.52,0,0,0,550,77.48h0V76h-3Z" style="fill: #e59033"/>
          <path id="Path_29806" data-name="Path 29806" d="M543.52,79H547V73h-3.48A1.52,1.52,0,0,0,542,74.52h0v3A1.52,1.52,0,0,0,543.52,79Z" style="fill: #ffd8a4"/>
          <path id="Path_29796" data-name="Path 29796" d="M577,69V80a3.24,3.24,0,0,1-3.41,3H559V69Z" style="fill: #fb0"/>
          <path id="Path_29797" data-name="Path 29797" d="M559,64h18v5H559Z" style="fill: #e59033"/>
          <path id="Path_29798" data-name="Path 29798" d="M577,65V63a3.24,3.24,0,0,0-3.41-3H559v5Z" style="fill: #fb0"/>
          <ellipse id="Ellipse_3819" data-name="Ellipse 3819" cx="569.27" cy="77.74" rx="2.46" ry="2.5" style="fill: #fff0dc"/>
          <circle id="Ellipse_3820" data-name="Ellipse 3820" cx="565.78" cy="77.74" r="2.5" style="fill: #e59033"/>
        </g>
      </g>
    </g>
    <g id="Group_27166" data-name="Group 27166">
      <rect id="Rectangle_15422-4" data-name="Rectangle 15422-4" x="52" y="37" width="48" height="48" style="fill: #fff;fill-opacity: 0"/>
      <g id="_031-business-and-finance-3" data-name=" 031-business-and-finance-3">
        <path id="Rectangle_15461-3" data-name="Rectangle 15461-3" d="M56.25,39h31.5A2.22,2.22,0,0,1,90,41.2h0V80.8A2.22,2.22,0,0,1,87.75,83H56.25A2.22,2.22,0,0,1,54,80.8h0V41.2A2.22,2.22,0,0,1,56.25,39Z" style="fill: #2ca01c"/>
        <g id="Group_12372-3" data-name="Group 12372-3" style="opacity: 0.5">
          <path id="Path_11120-2" data-name="Path 11120-2" d="M72,45H84v2H72Z" style="fill: #fff"/>
          <path id="Path_11120-3-2" data-name="Path 11120-3-2" d="M58,64h9v2H58Z" style="fill: #fff"/>
          <path id="Path_11120-4-2" data-name="Path 11120-4-2" d="M72,49H84v2H72Z" style="fill: #fff"/>
          <path id="Path_11120-4-3" data-name="Path 11120-4-3" d="M58,68h9v2H58Z" style="fill: #fff"/>
          <path id="Path_11122" data-name="Path 11122" d="M62,78h2v2H62Z" style="fill: #fff"/>
          <path id="Path_11123" data-name="Path 11123" d="M59,78h2v2H59Z" style="fill: #fff"/>
        </g>
        <g id="_035-shipping-and-delivery-6-4" data-name=" 035-shipping-and-delivery-6-4">
          <path id="Path_11124-4" data-name="Path 11124-4" d="M98,64V81.92A1.1,1.1,0,0,1,96.9,83H71.09A1.09,1.09,0,0,1,70,81.91V64Z" style="fill: #fb0"/>
          <path id="Path_11126-4" data-name="Path 11126-4" d="M87,60H98v4H87Z" style="fill: #e59033"/>
          <path id="Path_11127-4" data-name="Path 11127-4" d="M98.28,60h-28l3.36-5H94.92Z" style="fill: #fb0"/>
          <path id="Path_11128-4" data-name="Path 11128-4" d="M70,60H81v4H70Z" style="fill: #e59033"/>
          <path id="Path_11129-4" data-name="Path 11129-4" d="M87,64.33V69l-3-2.47L81,69V60h6Z" style="fill: #fff"/>
          <path id="Path_11115-3" data-name="Path 11115-3" d="M89,78h2v2H89Z" style="fill: #e59033"/>
          <path id="Path_11116-3" data-name="Path 11116-3" d="M86,78h2v2H86Z" style="fill: #e59033"/>
        </g>
        <path id="Path_30327" data-name="Path 30327" d="M59,55h0a2,2,0,0,0,2,2h4a2,2,0,0,0,2-2v-.44a2,2,0,0,0-1.52-1.94l-5-1.24A2,2,0,0,1,59,49.44V49a2,2,0,0,1,2-2h4a2,2,0,0,1,2,2h0" style="fill: none;stroke: #fff;stroke-linecap: round;stroke-miterlimit: 10;stroke-width: 2px"/>
        <line id="Line_1155" data-name="Line 1155" x1="63" y1="45" x2="63" y2="47" style="fill: none;stroke: #fff;stroke-linecap: round;stroke-miterlimit: 10;stroke-width: 2px"/>
        <line id="Line_1156" data-name="Line 1156" x1="63" y1="57" x2="63" y2="59" style="fill: none;stroke: #fff;stroke-linecap: round;stroke-miterlimit: 10;stroke-width: 2px"/>
      </g>
    </g>
    <g id="Group_27167" data-name="Group 27167">
      <rect id="Rectangle_15422-5" data-name="Rectangle 15422-5" x="234" y="43" width="48" height="48" style="fill: #fff;fill-opacity: 0"/>
      <g id="_031-business-and-finance-4" data-name=" 031-business-and-finance-4">
        <path id="Rectangle_15461-4" data-name="Rectangle 15461-4" d="M238.25,45h31.5A2.22,2.22,0,0,1,272,47.2h0V86.8a2.22,2.22,0,0,1-2.25,2.2h-31.5A2.22,2.22,0,0,1,236,86.8h0V47.2a2.22,2.22,0,0,1,2.25-2.2Z" style="fill: #2ca01c"/>
        <g id="Rectangle_15821" data-name="Rectangle 15821">
          <path d="M272.28,69.24h0a10,10,0,0,1,10,10h0a10,10,0,0,1-10,10h0a10,10,0,0,1-10-10h0A10,10,0,0,1,272.28,69.24Z" style="fill: #fb0"/>
          <path d="M272.28,70.24h0a9,9,0,0,1,9,9h0a9,9,0,0,1-9,9h0a9,9,0,0,1-9-9h0A9,9,0,0,1,272.28,70.24Z" style="fill: none;stroke: #e59033;stroke-miterlimit: 10;stroke-width: 2px"/>
        </g>
        <path id="Path_30330" data-name="Path 30330" d="M269.28,79.24l2,2,4-4" style="fill: none;stroke: #fff;stroke-linecap: round;stroke-linejoin: round;stroke-width: 2px"/>
        <path id="Path_11120-2-2" data-name="Path 11120-2-2" d="M240,68h18v2H240Z" style="fill: #fff;opacity: 0.5;isolation: isolate"/>
        <path id="Path_11120-2-3" data-name="Path 11120-2-3" d="M240,76h18v2H240Z" style="fill: #fff;opacity: 0.5;isolation: isolate"/>
        <path id="Path_11120-5" data-name="Path 11120-5" d="M240,72h18v2H240Z" style="fill: #fff;opacity: 0.5;isolation: isolate"/>
        <path id="Path_11120-5-2" data-name="Path 11120-5-2" d="M240,80h18v2H240Z" style="fill: #fff;opacity: 0.5;isolation: isolate"/>
        <path id="Path_30332" data-name="Path 30332" d="M240.28,63.71l6.2-5.73,3.85,3.24,5.51-5.51,3.54,2.87,5-6.42" style="fill: none;stroke: #fff;stroke-width: 2px"/>
        <path id="Path_30333" data-name="Path 30333" d="M260,51h5v5" style="fill: none;stroke: #fff;stroke-width: 2px"/>
      </g>
    </g>
    <line id="Line_1203" data-name="Line 1203" x1="164" y1="80" x2="164" y2="276" style="fill: none;stroke: #b4c8b1;stroke-width: 2px"/>
    <line id="Line_1208" data-name="Line 1208" x1="412" y1="148" x2="412" y2="178" style="fill: none;stroke: #b4c8b1;stroke-width: 2px"/>
    <line id="Line_1211" data-name="Line 1211" x1="553" y1="148" x2="553" y2="178" style="fill: none;stroke: #b4c8b1;stroke-width: 2px"/>
    <line id="Line_1210" data-name="Line 1210" x1="432" y1="178" x2="432" y2="208" style="fill: none;stroke: #b4c8b1;stroke-width: 2px"/>
    <line id="Line_1204" data-name="Line 1204" x1="144" y1="178" x2="654" y2="178" style="fill: none;stroke: #b4c8b1;stroke-width: 2px"/>
    <path id="Path_30411" data-name="Path 30411" d="M650,173l5,5-5,5" style="fill: none;stroke: #b4c8b1;stroke-miterlimit: 10;stroke-width: 2px"/>
    <line id="Line_1206" data-name="Line 1206" x1="259" y1="148" x2="259" y2="208" style="fill: none;stroke: #b4c8b1;stroke-width: 2px"/>
    <line id="Line_1212" data-name="Line 1212" x1="144" y1="276" x2="164" y2="276" style="fill: none;stroke: #b4c8b1;stroke-width: 2px"/>
    <line id="Line_1213" data-name="Line 1213" x1="144" y1="81" x2="164" y2="81" style="fill: none;stroke: #b4c8b1;stroke-width: 2px"/>
    <g id="Group_29022" data-name="Group 29022">
      <g id="Group_29021" data-name="Group 29021">
        <rect id="Rectangle_15452-2" data-name="Rectangle 15452-2" x="52" y="241" width="48" height="48" style="fill: #fff;fill-opacity: 0"/>
        <g id="_046-diploma" data-name=" 046-diploma">
          <path id="Path_11140" data-name="Path 11140" d="M93.41,252.41l-8.83-8.82a2,2,0,0,0-1.41-.59H59a2,2,0,0,0-2,2v40a2,2,0,0,0,2,2H92a2,2,0,0,0,2-2V253.83A2,2,0,0,0,93.41,252.41Z" style="fill: #2ca01c"/>
          <path id="Path_11131-3" data-name="Path 11131-3" d="M84,244.52C82.39,262.83,73.16,278.86,59.53,287h-.26A2.56,2.56,0,0,1,57,284.25v-38.5A2.56,2.56,0,0,1,59.27,243H84Z" style="fill: #47b138"/>
          <g id="Group_12375" data-name="Group 12375">
            <path id="Path_11149" data-name="Path 11149" d="M67.71,274.13c-1.81.95-2.42,2.75-2.64,4.62l-1-.86c-.81-.68-2,.48-1.17,1.17L65.2,281a.84.84,0,0,0,1.18,0,.88.88,0,0,0,.23-.56c.06-1.79.14-3.93,1.94-4.86C69.5,275.07,68.66,273.64,67.71,274.13Z" style="fill: #fff09e"/>
            <path id="Path_11150" data-name="Path 11150" d="M75.44,278.34a2,2,0,0,0-2.22-.91c-1.13.32-2.47,1.69-3.26.09-.47-1-1.9-.12-1.43.84a2.82,2.82,0,0,0,3.61,1.41c.33-.13,1.59-1.1,1.87-.6C74.53,280.11,76,279.27,75.44,278.34Z" style="fill: #fff09e"/>
          </g>
          <path id="Path_11152" data-name="Path 11152" d="M87.82,274.2a1.46,1.46,0,0,0-1.91.65l-.06.13a1.45,1.45,0,0,1-1.83.82,1.39,1.39,0,0,1-.87-.82,1.46,1.46,0,0,0-1.83-.84l-.14.06-.18.05v9.15l3.5-3.34L88,283.4v-9.15Z" style="fill: #fff"/>
          <path id="Path_11151" data-name="Path 11151" d="M85.9,266.22h0a1.22,1.22,0,0,0,1.57.74h0l.12,0h0a1.23,1.23,0,0,1,1.64.58,1.21,1.21,0,0,1,0,1.05h0a1.23,1.23,0,0,0,.58,1.64h0l.11.05h0a1.23,1.23,0,0,1,.75,1.57,1.24,1.24,0,0,1-.75.75h0a1.21,1.21,0,0,0-.74,1.56h0a.54.54,0,0,0,0,.11h0a1.24,1.24,0,0,1-.58,1.64,1.25,1.25,0,0,1-1.07,0h0a1.22,1.22,0,0,0-1.63.58h0a.61.61,0,0,0,0,.12h0a1.22,1.22,0,0,1-1.57.74,1.2,1.2,0,0,1-.75-.74h0a1.23,1.23,0,0,0-1.57-.75l-.12.05h0a1.23,1.23,0,0,1-1.63-1.64h0a1.23,1.23,0,0,0-.59-1.64h0l-.11,0h0a1.23,1.23,0,0,1,0-2.32h0a1.24,1.24,0,0,0,.75-1.57l0-.12h0a1.22,1.22,0,0,1,.58-1.63,1.24,1.24,0,0,1,1,0h0a1.22,1.22,0,0,0,1.64-.58h0a.37.37,0,0,0,0-.11h0a1.23,1.23,0,0,1,1.57-.75,1.21,1.21,0,0,1,.75.75Z" style="fill: #fb0"/>
          <path id="Path_11141" data-name="Path 11141" d="M84,243v8a2,2,0,0,0,2,2h8Z" style="fill: #fb0"/>
          <g id="Group_26740" data-name="Group 26740" style="opacity: 0.5">
            <rect id="Rectangle_15461-5" data-name="Rectangle 15461-5" x="64" y="253" width="8" height="2" style="fill: #fff"/>
            <rect id="Rectangle_15462" data-name="Rectangle 15462" x="64" y="259" width="5" height="2" style="fill: #fff"/>
            <rect id="Rectangle_15463" data-name="Rectangle 15463" x="72" y="259" width="2" height="2" style="fill: #fff"/>
            <rect id="Rectangle_15464" data-name="Rectangle 15464" x="76" y="259" width="7" height="2" style="fill: #fff"/>
            <rect id="Rectangle_15465" data-name="Rectangle 15465" x="86" y="259" width="2" height="2" style="fill: #fff"/>
            <rect id="Rectangle_15466" data-name="Rectangle 15466" x="64" y="266" width="2" height="2" style="fill: #fff"/>
            <rect id="Rectangle_15467" data-name="Rectangle 15467" x="68" y="266" width="7" height="2" style="fill: #fff"/>
          </g>
        </g>
      </g>
    </g>
    <g id="Group_29023" data-name="Group 29023">
      <rect id="Rectangle_15452-3" data-name="Rectangle 15452-3" x="234" y="224" width="48" height="48" style="fill: #fff;fill-opacity: 0"/>
      <g id="_049-business-and-finance-1" data-name=" 049-business-and-finance-1">
        <path id="Path_43" data-name="Path 43" d="M274,226v40.74a3.56,3.56,0,0,1-3.79,3.26H238V229.26a3.56,3.56,0,0,1,3.79-3.26Z" style="fill: #2ca01c"/>
        <path id="Path_47" data-name="Path 47" d="M279,229.47V239h-5V226h1.67A3.41,3.41,0,0,1,279,229.47Z" style="fill: #fb0"/>
      </g>
      <path id="Path_11131-4" data-name="Path 11131-4" d="M274,227.52c-2.14,18.3-14.46,34.34-32.62,42.48H238V228.75a2.91,2.91,0,0,1,3-2.75h33Z" style="fill: #47b138"/>
      <g id="Group_12372-4" data-name="Group 12372-4" style="opacity: 0.5">
        <path id="Path_11120-4-4" data-name="Path 11120-4-4" d="M244,232h12v2H244Z" style="fill: #fff"/>
        <path id="Path_11120-2-4" data-name="Path 11120-2-4" d="M244,242h24v2H244Z" style="fill: #fff"/>
        <path id="Path_11120-3-3" data-name="Path 11120-3-3" d="M257,250h11v2H257Z" style="fill: #fff"/>
        <path id="Path_11120-4-5" data-name="Path 11120-4-5" d="M244,236h12v2H244Z" style="fill: #fff"/>
        <path id="Path_11120-5-3" data-name="Path 11120-5-3" d="M244,246h24v2H244Z" style="fill: #fff"/>
        <path id="Path_11120-6-2" data-name="Path 11120-6-2" d="M257,254h11v2H257Z" style="fill: #fff"/>
        <path id="Path_11122-2" data-name="Path 11122-2" d="M266,265h2v2h-2Z" style="fill: #fff"/>
        <path id="Path_11123-2" data-name="Path 11123-2" d="M263,265h2v2h-2Z" style="fill: #fff"/>
      </g>
      <path id="Path_30324" data-name="Path 30324" d="M245,260h0a2,2,0,0,0,2,2h4a2,2,0,0,0,2-2v-.44a2,2,0,0,0-1.52-1.94l-5-1.24a2,2,0,0,1-1.51-1.94V254a2,2,0,0,1,2-2h4a2,2,0,0,1,2,2h0" style="fill: none;stroke: #fff;stroke-linecap: round;stroke-miterlimit: 10;stroke-width: 2px"/>
      <line id="Line_1150" data-name="Line 1150" x1="249" y1="250" x2="249" y2="252" style="fill: none;stroke: #fff;stroke-linecap: round;stroke-miterlimit: 10;stroke-width: 2px"/>
      <line id="Line_1151" data-name="Line 1151" x1="249" y1="262" x2="249" y2="264" style="fill: none;stroke: #fff;stroke-linecap: round;stroke-miterlimit: 10;stroke-width: 2px"/>
    </g>
    <g id="Group_27163-2" data-name="Group 27163-2">
      <rect id="Rectangle_15452-4" data-name="Rectangle 15452-4" x="407" y="224" width="48" height="48" style="fill: #fff;fill-opacity: 0"/>
      <g id="_031-business-and-finance-5" data-name=" 031-business-and-finance-5">
        <path id="Rectangle_15461-6" data-name="Rectangle 15461-6" d="M412.25,226h31.5a2.22,2.22,0,0,1,2.25,2.2h0v39.6a2.22,2.22,0,0,1-2.25,2.2h-31.5a2.22,2.22,0,0,1-2.25-2.2h0V228.2a2.22,2.22,0,0,1,2.25-2.2Z" style="fill: #2ca01c"/>
        <path id="Path_11131-5" data-name="Path 11131-5" d="M445.68,227.52c-2.12,18.3-14.33,34.34-32.33,42.48H413a2.9,2.9,0,0,1-3-2.75v-38.5a2.9,2.9,0,0,1,3-2.75h30A3,3,0,0,1,445.68,227.52Z" style="fill: #47b138"/>
        <g id="Group_12372-5" data-name="Group 12372-5" style="opacity: 0.5">
          <path id="Path_11120-3-4" data-name="Path 11120-3-4" d="M415,249h13v2H415Z" style="fill: #fff"/>
          <path id="Path_11120-6-3" data-name="Path 11120-6-3" d="M415,253h13v2H415Z" style="fill: #fff"/>
        </g>
        <path id="Path_30329-2" data-name="Path 30329-2" d="M422,229.4l1.56,2.2,2.44-1.13.24,2.68,2.69.24-1.13,2.45,2.2,1.56-2.2,1.55L429,241.4l-2.68.24-.25,2.68-2.44-1.13-1.56,2.2-1.55-2.2L418,244.32l-.24-2.68-2.69-.24,1.14-2.45-2.2-1.55,2.2-1.56-1.14-2.44,2.69-.24.24-2.69,2.45,1.13Z" style="fill: #fff"/>
        <line id="Line_1157-2" data-name="Line 1157-2" x1="419.74" y1="239.4" x2="423.74" y2="235.4" style="fill: none;stroke: #2ca01c;stroke-linecap: round;stroke-linejoin: round;stroke-width: 2px"/>
        <path id="Rectangle_15817-2" data-name="Rectangle 15817-2" d="M419.74,234.4h0a1,1,0,0,1,1,1h0a1,1,0,0,1-1,1h0a1,1,0,0,1-1-1h0A1,1,0,0,1,419.74,234.4Z" style="fill: #2ca01c"/>
        <path id="Rectangle_15818-2" data-name="Rectangle 15818-2" d="M423.74,238.4h0a1,1,0,0,1,1,1h0a1,1,0,0,1-1,1h0a1,1,0,0,1-1-1h0A1,1,0,0,1,423.74,238.4Z" style="fill: #2ca01c"/>
      </g>
      <g id="_035-shipping-and-delivery-6-5" data-name=" 035-shipping-and-delivery-6-5">
        <path id="Path_11124-5" data-name="Path 11124-5" d="M452,251v17.92a1.09,1.09,0,0,1-1.1,1.08H425.09a1.09,1.09,0,0,1-1.09-1.09V251Z" style="fill: #fb0"/>
        <path id="Path_11126-5" data-name="Path 11126-5" d="M441,247h11v4H441Z" style="fill: #e59033"/>
        <path id="Path_11127-5" data-name="Path 11127-5" d="M452.15,247h-28l3.36-5h21.27Z" style="fill: #fb0"/>
        <path id="Path_11128-5" data-name="Path 11128-5" d="M424,247h11v4H424Z" style="fill: #e59033"/>
        <path id="Path_11129-5" data-name="Path 11129-5" d="M441,251.33V256l-3-2.47L435,256v-9h6Z" style="fill: #fff"/>
      </g>
      <path id="Path_11115-4" data-name="Path 11115-4" d="M427,265h2v2h-2Z" style="fill: #e59033"/>
      <path id="Path_11116-4" data-name="Path 11116-4" d="M424,265h2v2h-2Z" style="fill: #e59033"/>
    </g>
  </g>
</svg>
