<svg id="Layer_1" data-name="Layer 1" xmlns="http://www.w3.org/2000/svg" width="690" height="350" viewBox="0 0 690 350">
  <title>qt_MuaHang</title>
  <rect width="690" height="350" style="fill: #fff;opacity: 0"/>
  <g>
    <g id="Group_26722" data-name="Group 26722">
      <rect id="Rectangle_15422" data-name="Rectangle 15422" x="60" y="36" width="48" height="48" style="fill: #fff;fill-opacity: 0"/>
      <g id="_031-business-and-finance" data-name=" 031-business-and-finance">
        <path id="Rectangle_15461" data-name="Rectangle 15461" d="M72.25,38h31.5A2.22,2.22,0,0,1,106,40.2h0V79.8a2.22,2.22,0,0,1-2.25,2.2H72.25A2.22,2.22,0,0,1,70,79.8h0V40.2A2.22,2.22,0,0,1,72.25,38Z" style="fill: #2ca01c"/>
        <g id="Group_12372" data-name="Group 12372" style="opacity: 0.5">
          <path id="Path_11120" data-name="Path 11120" d="M76,44H88v2H76Z" style="fill: #fff"/>
          <path id="Path_11120-2" data-name="Path 11120-2" d="M76,54h24v2H76Z" style="fill: #fff"/>
          <path id="Path_11120-3" data-name="Path 11120-3" d="M76,62h24v2H76Z" style="fill: #fff"/>
          <path id="Path_11120-4" data-name="Path 11120-4" d="M76,48H88v2H76Z" style="fill: #fff"/>
          <path id="Path_11120-5" data-name="Path 11120-5" d="M76,58h24v2H76Z" style="fill: #fff"/>
          <path id="Path_11120-6" data-name="Path 11120-6" d="M76,65h24v2H76Z" style="fill: #fff"/>
          <path id="Path_11122" data-name="Path 11122" d="M98,77h2v2H98Z" style="fill: #fff"/>
          <path id="Path_11123" data-name="Path 11123" d="M95,77h2v2H95Z" style="fill: #fff"/>
        </g>
      </g>
      <g id="_035-shipping-and-delivery-6" data-name=" 035-shipping-and-delivery-6">
        <path id="Path_11124" data-name="Path 11124" d="M90,63V80.92A1.1,1.1,0,0,1,88.9,82H63.09A1.09,1.09,0,0,1,62,80.91V63Z" style="fill: #fb0"/>
        <path id="Path_11126" data-name="Path 11126" d="M79,59H90v4H79Z" style="fill: #e59033"/>
        <path id="Path_11127" data-name="Path 11127" d="M90.25,59h-28l3.36-5H86.89Z" style="fill: #fb0"/>
        <path id="Path_11128" data-name="Path 11128" d="M62,59H73v4H62Z" style="fill: #e59033"/>
        <path id="Path_11129" data-name="Path 11129" d="M79,63.33V68l-3-2.47L73,68V59h6Z" style="fill: #fff"/>
      </g>
      <path id="Path_11115" data-name="Path 11115" d="M81,77h2v2H81Z" style="fill: #e59033"/>
      <path id="Path_11116" data-name="Path 11116" d="M78,77h2v2H78Z" style="fill: #e59033"/>
    </g>
    <g id="Group_26727" data-name="Group 26727">
      <rect id="Rectangle_15422-2" data-name="Rectangle 15422-2" x="213" y="36" width="48" height="48" style="fill: #fff;fill-opacity: 0"/>
      <g id="_035-shipping-and-delivery-6-2" data-name=" 035-shipping-and-delivery-6-2">
        <g id="Group_26725" data-name="Group 26725">
          <path id="Path_11124-2" data-name="Path 11124-2" d="M257,52V80.35A1.65,1.65,0,0,1,255.35,82H216.64A1.66,1.66,0,0,1,215,80.34V52Z" style="fill: #fb0"/>
          <path id="Path_11125" data-name="Path 11125" d="M244,62.33V82h-2V64C242,63.07,242.68,62.33,244,62.33Z" style="fill: #c8c8c8"/>
          <path id="Path_11126-2" data-name="Path 11126-2" d="M240,45h17v7H240Z" style="fill: #e59033"/>
          <path id="Path_11127-2" data-name="Path 11127-2" d="M257.25,45h-42l6-7h30Z" style="fill: #fb0"/>
          <path id="Path_11128-2" data-name="Path 11128-2" d="M215,45h17v7H215Z" style="fill: #e59033"/>
          <path id="Path_11129-2" data-name="Path 11129-2" d="M240,51.62v6.62l-4-3.31-4,3.31V45h8Z" style="fill: #fff"/>
        </g>
        <g id="Group_26726" data-name="Group 26726">
          <path id="Path_11130" data-name="Path 11130" d="M259,54.81V80.19A1.83,1.83,0,0,1,257.17,82H238.83A1.83,1.83,0,0,1,237,80.19V54.81A1.83,1.83,0,0,1,238.83,53h18.34a1.84,1.84,0,0,1,1.64,1,1.75,1.75,0,0,1,.19.81Z" style="fill: #2ca01c"/>
          <path id="Path_11131" data-name="Path 11131" d="M258.56,54A35.39,35.39,0,0,1,239,82h-.21A1.81,1.81,0,0,1,237,80.19V54.81A1.81,1.81,0,0,1,238.81,53h18.13A1.83,1.83,0,0,1,258.56,54Z" style="fill: #47b138"/>
          <path id="Path_11132" data-name="Path 11132" d="M254,53v5.46l-1.5-1.82L251,58.46V53Z" style="fill: #fff"/>
          <path id="Path_11133" data-name="Path 11133" d="M242.78,67.11a.91.91,0,0,1-.65-.26L240.31,65l1.29-1.29,1.18,1.18,3-3,1.28,1.28-3.64,3.65A.9.9,0,0,1,242.78,67.11Z" style="fill: #fff"/>
          <path id="Path_11134" data-name="Path 11134" d="M242.78,77.13a.91.91,0,0,1-.65-.27L240.31,75l1.29-1.29,1.18,1.18,3-3,1.28,1.29-3.64,3.64A.91.91,0,0,1,242.78,77.13Z" style="fill: #fff"/>
          <g id="Group_12373" data-name="Group 12373">
            <path id="Path_11135" data-name="Path 11135" d="M248,64h8v2h-8Z" style="fill: #82d577"/>
            <path id="Path_11136" data-name="Path 11136" d="M248,74h8v2h-8Z" style="fill: #82d577"/>
            <path id="Path_11137" data-name="Path 11137" d="M248,71h8v2h-8Z" style="fill: #82d577"/>
            <path id="Path_11138" data-name="Path 11138" d="M248,61h2v2h-2Z" style="fill: #82d577"/>
            <path id="Path_11139" data-name="Path 11139" d="M253,61h3v2h-3Z" style="fill: #82d577"/>
          </g>
        </g>
      </g>
    </g>
    <g id="Group_26739" data-name="Group 26739">
      <rect id="Rectangle_15422-3" data-name="Rectangle 15422-3" x="525" y="36" width="48" height="48" style="fill: #fff;fill-opacity: 0"/>
      <g id="Mobile_credit_card" data-name="Mobile credit card">
        <rect id="Rectangle_15468" data-name="Rectangle 15468" x="527" y="38" width="26" height="44" rx="3.03" style="fill: #2ca01c"/>
        <path id="Path_29795" data-name="Path 29795" d="M549.24,41h-3.52s-.68,1.72-1.52,2h-9.1c-.84-.28-1.52-2-1.52-2h-2.82a.76.76,0,0,0-.76.76V78.24a.76.76,0,0,0,.76.76h18.48a.76.76,0,0,0,.76-.76V41.76a.76.76,0,0,0-.76-.76Z" style="fill: #9edb9e"/>
        <path id="Path_29796" data-name="Path 29796" d="M569,58V69a3,3,0,0,1-3,3H553V58Z" style="fill: #fb0"/>
        <path id="Path_29797" data-name="Path 29797" d="M553,53h16v5H553Z" style="fill: #e59033"/>
        <path id="Path_29798" data-name="Path 29798" d="M569,54V52a3,3,0,0,0-3-3H553v5Z" style="fill: #fb0"/>
        <path id="Path_29799" data-name="Path 29799" d="M561,39l-5.39,3.5L561,46V44h10V41H561Z" style="fill: #e59033"/>
        <path id="Path_29800" data-name="Path 29800" d="M565,77H555v3h10v2l5.39-3.5L565,75Z" style="fill: #2ca01c"/>
        <path id="Path_29801" data-name="Path 29801" d="M532,52v2h17V49H535A3,3,0,0,0,532,52Z" style="fill: #fb0"/>
        <path id="Path_29802" data-name="Path 29802" d="M549,58V72H535a3,3,0,0,1-3-3V58Z" style="fill: #fb0"/>
        <path id="Path_29803" data-name="Path 29803" d="M532,54h17v4H532Z" style="fill: #e59033"/>
        <ellipse id="Ellipse_3819" data-name="Ellipse 3819" cx="562.71" cy="66.74" rx="2.46" ry="2.5" style="fill: #fff0dc"/>
        <circle id="Ellipse_3820" data-name="Ellipse 3820" cx="558.75" cy="66.74" r="2.5" style="fill: #e59033"/>
        <path id="Path_29804" data-name="Path 29804" d="M543,65V63.52A1.52,1.52,0,0,0,541.48,62H540v3Z" style="fill: #fff0dc"/>
        <path id="Path_29805" data-name="Path 29805" d="M540,68h1.48A1.52,1.52,0,0,0,543,66.48h0V65h-3Z" style="fill: #e59033"/>
        <path id="Path_29806" data-name="Path 29806" d="M536.52,68H540V62h-3.48A1.52,1.52,0,0,0,535,63.52h0v3A1.52,1.52,0,0,0,536.52,68Z" style="fill: #ffd8a4"/>
        <path id="Path_29807" data-name="Path 29807" d="M530,60.79V78.24a.76.76,0,0,0,.76.76h17.45A18.21,18.21,0,0,1,530,60.81Z" style="fill: #7fba7f"/>
      </g>
    </g>
    <g id="Group_27096" data-name="Group 27096">
      <rect id="Rectangle_15422-4" data-name="Rectangle 15422-4" x="363" y="36" width="48" height="48" style="fill: #fff;fill-opacity: 0"/>
      <g id="_031-business-and-finance-2" data-name=" 031-business-and-finance-2">
        <path id="Rectangle_15461-2" data-name="Rectangle 15461-2" d="M376.25,38h31.5A2.22,2.22,0,0,1,410,40.2h0V79.8a2.22,2.22,0,0,1-2.25,2.2h-31.5A2.22,2.22,0,0,1,374,79.8h0V40.2a2.22,2.22,0,0,1,2.25-2.2Z" style="fill: #2ca01c"/>
        <g id="Group_12372-2" data-name="Group 12372-2" style="opacity: 0.5">
          <path id="Path_11120-2-2" data-name="Path 11120-2-2" d="M377,45h12v2H377Z" style="fill: #fff"/>
          <path id="Path_11120-4-2" data-name="Path 11120-4-2" d="M377,49h6v2h-6Z" style="fill: #fff"/>
        </g>
        <g id="Group_12372-3" data-name="Group 12372-3" style="opacity: 0.5">
          <path id="Path_11120-3-2" data-name="Path 11120-3-2" d="M395,62h12v2H395Z" style="fill: #fff"/>
          <path id="Path_11120-4-3" data-name="Path 11120-4-3" d="M401,66h6v2h-6Z" style="fill: #fff"/>
          <path id="Path_11120-4-4" data-name="Path 11120-4-4" d="M401,70h6v2h-6Z" style="fill: #fff"/>
        </g>
      </g>
      <path id="Path_11115-2" data-name="Path 11115-2" d="M404,77h2v2h-2Z" style="fill: #e59033"/>
      <path id="Path_11116-2" data-name="Path 11116-2" d="M401,77h2v2h-2Z" style="fill: #e59033"/>
      <g id="Group_27118" data-name="Group 27118">
        <path id="Path_30323" data-name="Path 30323" d="M403.65,53a5.84,5.84,0,0,1-5.17,3.27,6,6,0,0,1,0-12,5.81,5.81,0,0,1,5.11,3.15" style="fill: none;stroke: #fff;stroke-linecap: round;stroke-linejoin: round;stroke-width: 2px"/>
        <line id="Line_1148" data-name="Line 1148" x1="404" y1="44" x2="404" y2="48" style="fill: none;stroke: #fff;stroke-linecap: round;stroke-miterlimit: 10;stroke-width: 2px"/>
        <line id="Line_1149" data-name="Line 1149" x1="400" y1="48" x2="404" y2="48" style="fill: none;stroke: #fff;stroke-linecap: round;stroke-miterlimit: 10;stroke-width: 2px"/>
      </g>
      <g id="_035-shipping-and-delivery-6-3" data-name=" 035-shipping-and-delivery-6-3">
        <path id="Path_11124-3" data-name="Path 11124-3" d="M393,63V80.92A1.1,1.1,0,0,1,391.9,82H366.09A1.09,1.09,0,0,1,365,80.91V63Z" style="fill: #fb0"/>
        <path id="Path_11126-3" data-name="Path 11126-3" d="M382,59h11v4H382Z" style="fill: #e59033"/>
        <path id="Path_11127-3" data-name="Path 11127-3" d="M392.66,59h-28L368,54H389.3Z" style="fill: #fb0"/>
        <path id="Path_11128-3" data-name="Path 11128-3" d="M365,59h11v4H365Z" style="fill: #e59033"/>
        <path id="Path_11129-3" data-name="Path 11129-3" d="M382,63.33V68l-3-2.47L376,68V59h6Z" style="fill: #fff"/>
        <path id="Path_30363" data-name="Path 30363" d="M393,70h-3.06l-1.68,4.46-4.06-1.54-1.92,3.84-3-1.82L376,80.44V82" style="fill: none;stroke: #fff;stroke-width: 2px"/>
      </g>
    </g>
    <line id="Line_1203" data-name="Line 1203" x1="81" y1="143" x2="81" y2="203" style="fill: none;stroke: #b4c8b1;stroke-width: 2px"/>
    <line id="Line_1206" data-name="Line 1206" x1="238" y1="143" x2="238" y2="203" style="fill: none;stroke: #b4c8b1;stroke-width: 2px"/>
    <line id="Line_1207" data-name="Line 1207" x1="388" y1="143" x2="388" y2="173" style="fill: none;stroke: #b4c8b1;stroke-width: 2px"/>
    <line id="Line_1209" data-name="Line 1209" x1="408" y1="173" x2="408" y2="203" style="fill: none;stroke: #b4c8b1;stroke-width: 2px"/>
    <line id="Line_1208" data-name="Line 1208" x1="550" y1="143" x2="550" y2="173" style="fill: none;stroke: #b4c8b1;stroke-width: 2px"/>
    <line id="Line_1204" data-name="Line 1204" x1="81" y1="172" x2="651" y2="172" style="fill: none;stroke: #b4c8b1;stroke-width: 2px"/>
    <path id="Path_30411" data-name="Path 30411" d="M646,167l5,5-5,5" style="fill: none;stroke: #b4c8b1;stroke-miterlimit: 10;stroke-width: 2px"/>
    <g id="Group_29022" data-name="Group 29022">
      <g id="Group_29021" data-name="Group 29021">
        <rect id="Rectangle_15452" data-name="Rectangle 15452" x="60" y="226" width="48" height="48" style="fill: #fff;fill-opacity: 0"/>
        <g id="_046-diploma" data-name=" 046-diploma">
          <path id="Path_11140" data-name="Path 11140" d="M101.42,237.41l-8.84-8.82a2,2,0,0,0-1.41-.59H67a2,2,0,0,0-2,2v40a2,2,0,0,0,2,2h33a2,2,0,0,0,2-2V238.83A2,2,0,0,0,101.42,237.41Z" style="fill: #2ca01c"/>
          <path id="Path_11131-2" data-name="Path 11131-2" d="M92,229.52C90.39,247.83,81.16,263.86,67.53,272h-.26A2.56,2.56,0,0,1,65,269.25v-38.5A2.56,2.56,0,0,1,67.27,228H92Z" style="fill: #47b138"/>
          <g id="Group_12375" data-name="Group 12375">
            <path id="Path_11149" data-name="Path 11149" d="M75.68,259.13c-1.81.95-2.42,2.75-2.64,4.62l-1-.86c-.81-.68-2,.48-1.17,1.17L73.16,266a.84.84,0,0,0,1.42-.58c.06-1.79.14-3.93,1.94-4.86C77.46,260.07,76.63,258.64,75.68,259.13Z" style="fill: #fff09e"/>
            <path id="Path_11150" data-name="Path 11150" d="M83.41,263.34a2,2,0,0,0-2.22-.91c-1.13.32-2.47,1.69-3.26.09-.47-1-1.9-.12-1.43.84a2.82,2.82,0,0,0,3.61,1.41c.33-.13,1.59-1.1,1.87-.6C82.5,265.11,83.93,264.27,83.41,263.34Z" style="fill: #fff09e"/>
          </g>
          <path id="Path_11152" data-name="Path 11152" d="M95.82,259.2a1.46,1.46,0,0,0-1.91.65l-.06.13a1.45,1.45,0,0,1-1.83.82,1.39,1.39,0,0,1-.87-.82,1.46,1.46,0,0,0-1.83-.84l-.14.06-.18.05v9.15l3.5-3.34L96,268.4v-9.15Z" style="fill: #fff"/>
          <path id="Path_11151" data-name="Path 11151" d="M93.87,251.22h0a1.22,1.22,0,0,0,1.57.74h0l.12,0h0a1.22,1.22,0,0,1,1.63,1.63h0a1.23,1.23,0,0,0,.59,1.64h0l.11.05h0a1.23,1.23,0,0,1,.75,1.57,1.26,1.26,0,0,1-.75.75h0a1.23,1.23,0,0,0-.75,1.56h0l0,.11h0a1.22,1.22,0,0,1-.57,1.64,1.25,1.25,0,0,1-1.07,0h0a1.24,1.24,0,0,0-1.64.58h0a.56.56,0,0,0,0,.12h0a1.24,1.24,0,0,1-1.58.74,1.21,1.21,0,0,1-.74-.74h0a1.23,1.23,0,0,0-1.57-.75l-.12.05h0a1.23,1.23,0,0,1-1.63-1.64h0a1.24,1.24,0,0,0-.59-1.64h0l-.11,0h0a1.23,1.23,0,0,1-.75-1.57,1.21,1.21,0,0,1,.75-.75h0a1.22,1.22,0,0,0,.74-1.57s0-.08,0-.12h0a1.22,1.22,0,0,1,.58-1.63,1.24,1.24,0,0,1,1,0h0a1.22,1.22,0,0,0,1.64-.58h0a1.17,1.17,0,0,0,0-.11h0a1.22,1.22,0,0,1,1.57-.75,1.24,1.24,0,0,1,.75.75Z" style="fill: #fb0"/>
          <path id="Path_11141" data-name="Path 11141" d="M92,228v8a2,2,0,0,0,2,2h8Z" style="fill: #fb0"/>
          <g id="Group_26740" data-name="Group 26740" style="opacity: 0.5">
            <rect id="Rectangle_15461-3" data-name="Rectangle 15461-3" x="72" y="238" width="8" height="2" style="fill: #fff"/>
            <rect id="Rectangle_15462" data-name="Rectangle 15462" x="72" y="244" width="5" height="2" style="fill: #fff"/>
            <rect id="Rectangle_15463" data-name="Rectangle 15463" x="80" y="244" width="2" height="2" style="fill: #fff"/>
            <rect id="Rectangle_15464" data-name="Rectangle 15464" x="84" y="244" width="7" height="2" style="fill: #fff"/>
            <rect id="Rectangle_15465" data-name="Rectangle 15465" x="94" y="244" width="2" height="2" style="fill: #fff"/>
            <rect id="Rectangle_15466" data-name="Rectangle 15466" x="72" y="251" width="2" height="2" style="fill: #fff"/>
            <rect id="Rectangle_15467" data-name="Rectangle 15467" x="76" y="251" width="7" height="2" style="fill: #fff"/>
          </g>
        </g>
      </g>
    </g>
    <g id="Group_26736" data-name="Group 26736">
      <rect id="Rectangle_15452-2" data-name="Rectangle 15452-2" x="383" y="226" width="48" height="48" style="fill: #fff;fill-opacity: 0"/>
      <g id="_031-business-and-finance-3" data-name=" 031-business-and-finance-3">
        <path id="Rectangle_15461-4" data-name="Rectangle 15461-4" d="M387.25,228h31.5a2.22,2.22,0,0,1,2.25,2.2h0v39.6a2.22,2.22,0,0,1-2.25,2.2h-31.5a2.22,2.22,0,0,1-2.25-2.2h0V230.2a2.22,2.22,0,0,1,2.25-2.2Z" style="fill: #2ca01c"/>
        <path id="Path_11131-3" data-name="Path 11131-3" d="M420.68,229.52c-2.12,18.31-14.32,34.34-32.33,42.48H388a2.9,2.9,0,0,1-3-2.75v-38.5a2.9,2.9,0,0,1,3-2.75h30A3,3,0,0,1,420.68,229.52Z" style="fill: #47b138"/>
        <g id="Group_12372-4" data-name="Group 12372-4" style="opacity: 0.5">
          <path id="Path_11120-3-3" data-name="Path 11120-3-3" d="M390,251h13v2H390Z" style="fill: #fff"/>
          <path id="Path_11120-6-2" data-name="Path 11120-6-2" d="M390,255h13v2H390Z" style="fill: #fff"/>
          <path id="Path_11122-2" data-name="Path 11122-2" d="M412,266h2v2h-2Z" style="fill: #fff"/>
          <path id="Path_11123-2" data-name="Path 11123-2" d="M409,266h2v2h-2Z" style="fill: #fff"/>
        </g>
        <path id="Path_30326" data-name="Path 30326" d="M398,231.4l1.55,2.2,2.45-1.13.24,2.68,2.69.24-1.13,2.45,2.2,1.56-2.2,1.55,1.13,2.45-2.69.24-.24,2.68-2.45-1.13-1.55,2.2-1.56-2.2L394,246.32l-.24-2.68-2.69-.24,1.13-2.45L390,239.4l2.2-1.56-1.13-2.44,2.69-.24.24-2.69,2.45,1.13Z" style="fill: #fff"/>
        <line id="Line_1154" data-name="Line 1154" x1="395.71" y1="241.4" x2="399.71" y2="237.4" style="fill: none;stroke: #2ca01c;stroke-linecap: round;stroke-linejoin: round;stroke-width: 2px"/>
        <path id="Rectangle_15815" data-name="Rectangle 15815" d="M395.71,236.4h0a1,1,0,0,1,1,1h0a1,1,0,0,1-1,1h0a1,1,0,0,1-1-1h0A1,1,0,0,1,395.71,236.4Z" style="fill: #2ca01c"/>
        <path id="Rectangle_15816" data-name="Rectangle 15816" d="M399.71,240.4h0a1,1,0,0,1,1,1h0a1,1,0,0,1-1,1h0a1,1,0,0,1-1-1h0A1,1,0,0,1,399.71,240.4Z" style="fill: #2ca01c"/>
      </g>
      <path id="Path_29821" data-name="Path 29821" d="M427.25,252h-16l-.34,6h1.36l2.1,14h14.88Z" style="fill: #fb0"/>
      <path id="Path_29827" data-name="Path 29827" d="M411.74,258H400.11l-2.19,14h16Z" style="fill: #53d441"/>
      <path id="Path_29829" data-name="Path 29829" d="M425,255h-2v-5.22c0-.42-1-3.78-4-3.78a3.7,3.7,0,0,0-4,3.37,3.32,3.32,0,0,0,0,.63v5h-2v-5a5.89,5.89,0,0,1,5.68-6c3.19,0,6.32,2.81,6.32,6Z" style="fill: #e59033"/>
      <path id="Path_29832" data-name="Path 29832" d="M409,260.85a3.1,3.1,0,0,1-2.44,3.1,3,3,0,0,1-3.51-2.39A3.43,3.43,0,0,1,403,261v-1h-1v.85a4.11,4.11,0,0,0,3.17,4.07A4,4,0,0,0,410,261v-1h-1Z" style="fill: #47b138"/>
    </g>
    <g id="Group_29023" data-name="Group 29023">
      <rect id="Rectangle_15452-3" data-name="Rectangle 15452-3" x="213" y="226" width="48" height="48" style="fill: #fff;fill-opacity: 0"/>
      <g id="_049-business-and-finance-1" data-name=" 049-business-and-finance-1">
        <path id="Path_43" data-name="Path 43" d="M253,228v40.74a3.56,3.56,0,0,1-3.79,3.26H217V231.26a3.56,3.56,0,0,1,3.79-3.26Z" style="fill: #2ca01c"/>
        <path id="Path_47" data-name="Path 47" d="M258,231.47V241h-5V228h1.67A3.41,3.41,0,0,1,258,231.47Z" style="fill: #fb0"/>
      </g>
      <path id="Path_11131-4" data-name="Path 11131-4" d="M253,229.52c-2.14,18.3-14.46,34.34-32.62,42.48H217V230.75a2.91,2.91,0,0,1,3-2.75h33Z" style="fill: #47b138"/>
      <g id="Group_12372-5" data-name="Group 12372-5" style="opacity: 0.5">
        <path id="Path_11120-4-5" data-name="Path 11120-4-5" d="M223,234h12v2H223Z" style="fill: #fff"/>
        <path id="Path_11120-2-3" data-name="Path 11120-2-3" d="M223,244h24v2H223Z" style="fill: #fff"/>
        <path id="Path_11120-3-4" data-name="Path 11120-3-4" d="M236,252h11v2H236Z" style="fill: #fff"/>
        <path id="Path_11120-4-6" data-name="Path 11120-4-6" d="M223,238h12v2H223Z" style="fill: #fff"/>
        <path id="Path_11120-5-2" data-name="Path 11120-5-2" d="M223,248h24v2H223Z" style="fill: #fff"/>
        <path id="Path_11120-6-3" data-name="Path 11120-6-3" d="M236,256h11v2H236Z" style="fill: #fff"/>
        <path id="Path_11122-3" data-name="Path 11122-3" d="M245,267h2v2h-2Z" style="fill: #fff"/>
        <path id="Path_11123-3" data-name="Path 11123-3" d="M242,267h2v2h-2Z" style="fill: #fff"/>
      </g>
      <path id="Path_30324" data-name="Path 30324" d="M224,262h0a2,2,0,0,0,2,2h4a2,2,0,0,0,2-2v-.44a2,2,0,0,0-1.52-1.94l-5-1.24a2,2,0,0,1-1.51-1.94V256a2,2,0,0,1,2-2h4a2,2,0,0,1,2,2h0" style="fill: none;stroke: #fff;stroke-linecap: round;stroke-miterlimit: 10;stroke-width: 2px"/>
      <line id="Line_1150" data-name="Line 1150" x1="228" y1="252" x2="228" y2="254" style="fill: none;stroke: #fff;stroke-linecap: round;stroke-miterlimit: 10;stroke-width: 2px"/>
      <line id="Line_1151" data-name="Line 1151" x1="228" y1="264" x2="228" y2="266" style="fill: none;stroke: #fff;stroke-linecap: round;stroke-miterlimit: 10;stroke-width: 2px"/>
    </g>
  </g>
</svg>
