<?xml version="1.0" encoding="utf-8"?>
<!-- Generator: Adobe Illustrator 25.0.0, SVG Export Plug-In . SVG Version: 6.00 Build 0)  -->
<svg version="1.1" id="Layer_1" xmlns="http://www.w3.org/2000/svg" xmlns:xlink="http://www.w3.org/1999/xlink" x="0px" y="0px"
	 viewBox="0 0 690 350" style="enable-background:new 0 0 690 350;" xml:space="preserve">
<style type="text/css">
	.st0{fill:#FFFFFF;fill-opacity:0;}
	.st1{fill:#34845F;}
	.st2{fill:#5DAE8B;}
	.st3{opacity:0.5;}
	.st4{fill:#FFFFFF;}
	.st5{fill:#FFE61B;}
	.st6{fill:none;stroke:#FFB72B;stroke-width:2;stroke-linecap:round;stroke-linejoin:round;stroke-miterlimit:10;}
	.st7{fill:none;}
	.st8{fill:none;stroke:#FFFFFF;stroke-width:2;stroke-linecap:round;stroke-linejoin:round;}
	.st9{fill:none;stroke:#FFB72B;stroke-width:2;stroke-linejoin:round;stroke-miterlimit:10;}
	.st10{fill:none;stroke:#FFB72B;stroke-width:2;stroke-miterlimit:10;}
	.st11{fill:#E59033;}
	.st12{fill:none;stroke:#FFFFFF;stroke-width:2;stroke-linecap:round;stroke-miterlimit:10;}
	.st13{fill:none;stroke:#5DAE8B;stroke-width:2;}
	.st14{fill:none;stroke:#5DAE8B;stroke-width:2;stroke-miterlimit:10;}
</style>
<rect x="0.2" class="st0" width="690" height="350"/>
<g>
	<g id="Group_27173">
		<path id="Rectangle_15579" class="st1" d="M118,53h32c1.1,0,2,0.9,2,2v40c0,1.1-0.9,2-2,2h-32c-1.1,0-2-0.9-2-2V55
			C116,53.9,116.9,53,118,53z"/>
		<path id="Path_29841" class="st2" d="M151.6,58.2c-2.2,18.6-15.5,34-33.6,38.8l0,0c-1.1,0-2-0.9-2-2V55c0-1.1,0.9-2,2-2h32
			c1.1,0,2,0.9,2,2L151.6,58.2z"/>
		<g id="Group_26887" class="st3">
			<path id="Path_11120-2" class="st4" d="M120,67h24v2h-24V67z"/>
			<path id="Path_11120-2-2" class="st4" d="M120,71h24v2h-24V71z"/>
			<path id="Path_11120-2-3" class="st4" d="M120,75h4v2h-4V75z"/>
			<path id="Path_11120-2-4" class="st4" d="M120,79h4v2h-4V79z"/>
		</g>
		<g id="Rectangle_15580">
			<rect x="130" y="79" class="st5" width="28" height="16"/>
			<rect x="129" y="78" class="st6" width="30" height="18"/>
		</g>
		<path id="Rectangle_15581" class="st4" d="M143.7,85.2L143.7,85.2c1.1,0,2,0.9,2,2l0,0c0,1.1-0.9,2-2,2l0,0c-1.1,0-2-0.9-2-2l0,0
			C141.7,86.1,142.6,85.2,143.7,85.2z"/>
		<g id="Path_29842">
			<path class="st7" d="M152,93h-16c0-1.1-0.9-2-2-2l0,0v-8l0,0c1.1,0,2-0.9,2-2h16c0,1.1,0.9,2,2,2l0,0v8l0,0
				C152.9,91,152,91.9,152,93z"/>
			<path class="st4" d="M150.5,91c0.3-0.6,0.9-1.1,1.5-1.5v-5.1c-0.6-0.3-1.1-0.9-1.5-1.5h-13.1c-0.3,0.6-0.9,1.1-1.5,1.5v5.1
				c0.6,0.3,1.1,0.9,1.5,1.5H151 M152,93h-16c0-1.1-0.9-2-2-2v-8c1.1,0,2-0.9,2-2h16c0,1.1,0.9,2,2,2v8C152.9,91,152,91.9,152,93z"
				/>
		</g>
		<g id="Group_26888">
			<line id="Line_965" class="st8" x1="105.8" y1="43.6" x2="105.8" y2="49.6"/>
			<line id="Line_966" class="st8" x1="103.8" y1="43.6" x2="107.8" y2="43.6"/>
			<line id="Line_967" class="st8" x1="110.8" y1="43.6" x2="110.8" y2="49.6"/>
			<line id="Line_968" class="st8" x1="110.8" y1="46.6" x2="114.8" y2="46.6"/>
			<line id="Line_969" class="st8" x1="114.8" y1="43.6" x2="114.8" y2="49.6"/>
			<path id="Path_29843" class="st8" d="M117.8,43.6v6h4v-6"/>
		</g>
	</g>
	<g id="Group_27174">
		<path id="Rectangle_15582" class="st1" d="M118,229h32c1.1,0,2,0.9,2,2v40c0,1.1-0.9,2-2,2h-32c-1.1,0-2-0.9-2-2v-40
			C116,229.9,116.9,229,118,229z"/>
		<path id="Path_29844" class="st2" d="M151.6,234.2c-2.2,18.6-15.5,34-33.6,38.8l0,0c-1.1,0-2-0.9-2-2v-40c0-1.1,0.9-2,2-2h32
			c1.1,0,2,0.9,2,2L151.6,234.2z"/>
		<g id="Group_26890" class="st3">
			<path id="Path_11120-2-5" class="st4" d="M120,243h24v2h-24V243z"/>
			<path id="Path_11120-2-6" class="st4" d="M120,247h24v2h-24V247z"/>
			<path id="Path_11120-2-7" class="st4" d="M120,251h4v2h-4V251z"/>
			<path id="Path_11120-2-8" class="st4" d="M120,255h4v2h-4V255z"/>
		</g>
		<g id="Rectangle_15583">
			<rect x="130" y="255" class="st5" width="28" height="16"/>
			<rect x="129" y="254" class="st9" width="30" height="18"/>
		</g>
		<path id="Rectangle_15584" class="st4" d="M143.7,261.2L143.7,261.2c1.1,0,2,0.9,2,2l0,0c0,1.1-0.9,2-2,2l0,0c-1.1,0-2-0.9-2-2
			l0,0C141.7,262.1,142.6,261.2,143.7,261.2z"/>
		<g id="Path_29845">
			<path class="st7" d="M152,269h-16c0-1.1-0.9-2-2-2l0,0v-8l0,0c1.1,0,2-0.9,2-2h16c0,1.1,0.9,2,2,2l0,0v8l0,0
				C152.9,267,152,267.9,152,269z"/>
			<path class="st4" d="M150.5,267c0.3-0.6,0.9-1.1,1.5-1.5v-5.1c-0.6-0.3-1.1-0.9-1.5-1.5h-13.1c-0.3,0.6-0.9,1.1-1.5,1.5v5.1
				c0.6,0.3,1.1,0.9,1.5,1.5H151 M152,269h-16c0-1.1-0.9-2-2-2v-8c1.1,0,2-0.9,2-2h16c0,1.1,0.9,2,2,2v8
				C152.9,267,152,267.9,152,269z"/>
		</g>
	</g>
	<g id="Group_27176">
		<path id="Rectangle_15618" class="st1" d="M379,140h32c1.1,0,2,0.9,2,2v40c0,1.1-0.9,2-2,2h-32c-1.1,0-2-0.9-2-2v-40
			C377,140.9,377.9,140,379,140z"/>
		<path id="Path_29857" class="st2" d="M412.6,145.2c-2.2,18.6-15.5,34-33.6,38.8l0,0c-1.1,0-2-0.9-2-2v-40c0-1.1,0.9-2,2-2h32
			c1.1,0,2,0.9,2,2L412.6,145.2z"/>
		<g id="Group_26800" class="st3">
			<path id="Path_11120-2-9" class="st4" d="M393,149h12v2h-12V149z"/>
			<path id="Path_11120-2-2-2" class="st4" d="M393,157h12v2h-12V157z"/>
			<path id="Path_11120-2-3-2" class="st4" d="M393,165h12v2h-12V165z"/>
		</g>
		<path id="Path_30334" class="st8" d="M381.7,151.2l2,2l4-4"/>
		<path id="Path_30335" class="st8" d="M381.7,158.2l2,2l4-4"/>
		<path id="Path_30336" class="st8" d="M381.7,165.2l2,2l4-4"/>
		<g id="Rectangle_15619">
			<path class="st5" d="M402,166h15c1.1,0,2,0.9,2,2v12c0,1.1-0.9,2-2,2h-15c-1.1,0-2-0.9-2-2v-12C400,166.9,400.9,166,402,166z"/>
			<path class="st10" d="M402,165h15c1.7,0,3,1.3,3,3v12c0,1.7-1.3,3-3,3h-15c-1.7,0-3-1.3-3-3v-12C399,166.3,400.3,165,402,165z"/>
		</g>
		<rect id="Rectangle_15620" x="410" y="170" class="st4" width="2" height="2"/>
		<rect id="Rectangle_15621" x="410" y="173" class="st4" width="2" height="2"/>
		<rect id="Rectangle_15622" x="399" y="173" class="st11" width="2" height="2"/>
		<rect id="Rectangle_15623" x="399" y="176" class="st11" width="2" height="2"/>
		<rect id="Rectangle_15624" x="399" y="170" class="st11" width="2" height="2"/>
		<rect id="Rectangle_15625" x="410" y="176" class="st4" width="2" height="2"/>
		<rect id="Rectangle_15626" x="413" y="170" class="st4" width="2" height="2"/>
		<rect id="Rectangle_15627" x="413" y="173" class="st4" width="2" height="2"/>
		<rect id="Rectangle_15628" x="413" y="176" class="st4" width="2" height="2"/>
		<rect id="Rectangle_15629" x="416" y="170" class="st4" width="2" height="2"/>
		<rect id="Rectangle_15630" x="416" y="173" class="st4" width="2" height="2"/>
		<rect id="Rectangle_15631" x="416" y="176" class="st4" width="2" height="2"/>
		<path id="Rectangle_15632" class="st4" d="M405.2,172.2L405.2,172.2c1.1,0,2,0.9,2,2l0,0c0,1.1-0.9,2-2,2l0,0c-1.1,0-2-0.9-2-2
			l0,0C403.2,173.1,404.1,172.2,405.2,172.2z"/>
		<g id="Group_26913">
			<line id="Line_1016" class="st12" x1="406" y1="174" x2="408" y2="174"/>
			<line id="Line_1017" class="st12" x1="403" y1="174" x2="405" y2="174"/>
		</g>
		<g id="Group_26914">
			<line id="Line_1018" class="st12" x1="405" y1="175" x2="405" y2="177"/>
			<line id="Line_1019" class="st12" x1="405" y1="172" x2="405" y2="174"/>
		</g>
	</g>
	<line id="Line_1203" class="st13" x1="136" y1="145" x2="136" y2="205"/>
	<line id="Line_1204" class="st13" x1="136" y1="175" x2="326" y2="175"/>
	<line id="Line_1205" class="st13" x1="468" y1="175" x2="578" y2="175"/>
	<path id="Path_30411" class="st14" d="M573,170l5,5l-5,5"/>
	<path id="Path_30411-2" class="st14" d="M321,170l5,5l-5,5"/>
</g>
<g>
	<g>
		<path class="st4" d="M121,58.1c-0.2,0-0.4-0.1-0.5-0.2s-0.2-0.3-0.2-0.5c0-0.2,0.1-0.3,0.2-0.5s0.3-0.2,0.5-0.2h4.9
			c0.2,0,0.4,0.1,0.5,0.2c0.1,0.1,0.2,0.3,0.2,0.5c0,0.2-0.1,0.3-0.2,0.5c-0.1,0.1-0.3,0.2-0.5,0.2H121z M123.4,64.5
			c-0.2,0-0.4-0.1-0.5-0.2c-0.1-0.1-0.2-0.3-0.2-0.5v-6.4h1.4v6.4c0,0.2-0.1,0.4-0.2,0.5S123.6,64.5,123.4,64.5z"/>
		<path class="st4" d="M128.4,56.8c0.2,0,0.3,0.1,0.5,0.2s0.2,0.3,0.2,0.5v6.4c0,0.2-0.1,0.4-0.2,0.5c-0.1,0.1-0.3,0.2-0.5,0.2
			c-0.2,0-0.4-0.1-0.5-0.2c-0.1-0.1-0.2-0.3-0.2-0.5v-6.4c0-0.2,0.1-0.4,0.2-0.5S128.2,56.8,128.4,56.8z M128.4,60h4.9v1.3h-4.9V60z
			 M133.3,56.8c0.2,0,0.4,0.1,0.5,0.2s0.2,0.3,0.2,0.5v6.4c0,0.2-0.1,0.4-0.2,0.5c-0.1,0.1-0.3,0.2-0.5,0.2c-0.2,0-0.3-0.1-0.5-0.2
			s-0.2-0.3-0.2-0.5v-6.4c0-0.2,0.1-0.4,0.2-0.5S133.1,56.8,133.3,56.8z"/>
		<path class="st4" d="M141.1,56.8c0.2,0,0.3,0.1,0.5,0.2c0.1,0.1,0.2,0.3,0.2,0.5v4c0,0.6-0.1,1.1-0.4,1.6s-0.6,0.8-1.1,1.1
			c-0.5,0.3-1,0.4-1.6,0.4c-0.6,0-1.1-0.1-1.6-0.4c-0.5-0.3-0.8-0.6-1.1-1.1s-0.4-1-0.4-1.6v-4c0-0.2,0.1-0.4,0.2-0.5
			c0.1-0.1,0.3-0.2,0.5-0.2c0.2,0,0.3,0.1,0.5,0.2c0.1,0.1,0.2,0.3,0.2,0.5v4c0,0.4,0.1,0.7,0.2,1s0.4,0.5,0.6,0.6
			c0.3,0.1,0.5,0.2,0.8,0.2c0.3,0,0.6-0.1,0.9-0.2c0.3-0.1,0.5-0.4,0.7-0.6c0.2-0.3,0.3-0.6,0.3-1v-4c0-0.2,0.1-0.4,0.2-0.5
			C140.7,56.9,140.9,56.8,141.1,56.8z"/>
	</g>
</g>
<g>
	<g>
		<path class="st4" d="M185.3,232.6c-0.2,0-0.4-0.1-0.5-0.2s-0.2-0.3-0.2-0.5s0.1-0.3,0.2-0.5c0.1-0.1,0.3-0.2,0.5-0.2h4.9
			c0.2,0,0.4,0.1,0.5,0.2c0.1,0.1,0.2,0.3,0.2,0.5c0,0.2-0.1,0.3-0.2,0.5c-0.1,0.1-0.3,0.2-0.5,0.2H185.3z M187.7,239
			c-0.2,0-0.4-0.1-0.5-0.2c-0.1-0.1-0.2-0.3-0.2-0.5v-6.4h1.4v6.4c0,0.2-0.1,0.3-0.2,0.5C188.1,238.9,188,239,187.7,239z"/>
		<path class="st4" d="M192.7,231.3c0.2,0,0.3,0.1,0.5,0.2c0.1,0.1,0.2,0.3,0.2,0.5v6.4c0,0.2-0.1,0.3-0.2,0.5
			c-0.1,0.1-0.3,0.2-0.5,0.2c-0.2,0-0.4-0.1-0.5-0.2c-0.1-0.1-0.2-0.3-0.2-0.5V232c0-0.2,0.1-0.3,0.2-0.5
			C192.3,231.4,192.5,231.3,192.7,231.3z M192.7,234.5h4.9v1.3h-4.9V234.5z M197.6,231.3c0.2,0,0.4,0.1,0.5,0.2
			c0.1,0.1,0.2,0.3,0.2,0.5v6.4c0,0.2-0.1,0.3-0.2,0.5c-0.1,0.1-0.3,0.2-0.5,0.2c-0.2,0-0.3-0.1-0.5-0.2c-0.1-0.1-0.2-0.3-0.2-0.5
			V232c0-0.2,0.1-0.3,0.2-0.5C197.2,231.4,197.4,231.3,197.6,231.3z"/>
		<path class="st4" d="M205.4,231.3c0.2,0,0.3,0.1,0.5,0.2s0.2,0.3,0.2,0.5v4c0,0.6-0.1,1.1-0.4,1.6c-0.3,0.5-0.6,0.8-1.1,1.1
			c-0.5,0.3-1,0.4-1.6,0.4c-0.6,0-1.1-0.1-1.6-0.4c-0.5-0.3-0.8-0.6-1.1-1.1c-0.3-0.5-0.4-1-0.4-1.6v-4c0-0.2,0.1-0.4,0.2-0.5
			s0.3-0.2,0.5-0.2c0.2,0,0.3,0.1,0.5,0.2s0.2,0.3,0.2,0.5v4c0,0.4,0.1,0.7,0.2,1s0.4,0.5,0.6,0.6c0.3,0.1,0.5,0.2,0.8,0.2
			c0.3,0,0.6-0.1,0.9-0.2c0.3-0.1,0.5-0.4,0.7-0.6c0.2-0.3,0.3-0.6,0.3-1v-4c0-0.2,0.1-0.4,0.2-0.5
			C205.1,231.4,205.2,231.3,205.4,231.3z"/>
	</g>
</g>
<g>
	<g>
		<path class="st4" d="M126.2,233.1c0.2,0.1,0.3,0.2,0.3,0.5c0,0.2,0,0.4-0.2,0.6c-0.1,0.1-0.2,0.2-0.4,0.2c-0.2,0-0.3,0-0.5-0.1
			c-0.2-0.1-0.4-0.1-0.6-0.2c-0.2,0-0.4-0.1-0.6-0.1c-0.4,0-0.8,0.1-1.1,0.2s-0.6,0.3-0.8,0.5c-0.2,0.2-0.4,0.5-0.5,0.8
			s-0.2,0.7-0.2,1c0,0.4,0.1,0.8,0.2,1.2s0.3,0.6,0.5,0.8c0.2,0.2,0.5,0.4,0.8,0.5c0.3,0.1,0.6,0.2,1,0.2c0.2,0,0.4,0,0.6-0.1
			c0.2,0,0.4-0.1,0.6-0.2c0.2-0.1,0.3-0.1,0.5-0.1c0.2,0,0.3,0.1,0.4,0.2c0.1,0.2,0.2,0.4,0.2,0.6c0,0.2-0.2,0.3-0.3,0.4
			c-0.2,0.1-0.4,0.2-0.6,0.2c-0.2,0.1-0.4,0.1-0.6,0.1c-0.2,0-0.4,0-0.6,0c-0.5,0-1-0.1-1.5-0.3c-0.5-0.2-0.9-0.4-1.3-0.7
			c-0.4-0.3-0.7-0.7-0.9-1.2c-0.2-0.5-0.3-1.1-0.3-1.7c0-0.6,0.1-1.1,0.3-1.6s0.5-0.9,0.8-1.2c0.4-0.3,0.8-0.6,1.3-0.8
			s1-0.3,1.6-0.3c0.3,0,0.6,0,0.9,0.1C125.7,232.9,125.9,233,126.2,233.1z"/>
		<path class="st4" d="M128.4,232.7c0.2,0,0.3,0.1,0.5,0.2c0.1,0.1,0.2,0.3,0.2,0.5v6.4c0,0.2-0.1,0.3-0.2,0.5
			c-0.1,0.1-0.3,0.2-0.5,0.2c-0.2,0-0.4-0.1-0.5-0.2c-0.1-0.1-0.2-0.3-0.2-0.5v-6.4c0-0.2,0.1-0.3,0.2-0.5
			C128.1,232.8,128.2,232.7,128.4,232.7z M128.4,235.9h4.9v1.3h-4.9V235.9z M133.3,232.7c0.2,0,0.4,0.1,0.5,0.2
			c0.1,0.1,0.2,0.3,0.2,0.5v6.4c0,0.2-0.1,0.3-0.2,0.5c-0.1,0.1-0.3,0.2-0.5,0.2c-0.2,0-0.3-0.1-0.5-0.2c-0.1-0.1-0.2-0.3-0.2-0.5
			v-6.4c0-0.2,0.1-0.3,0.2-0.5C133,232.8,133.1,232.7,133.3,232.7z"/>
		<path class="st4" d="M137,239.8c0,0.2-0.1,0.3-0.2,0.5c-0.1,0.1-0.3,0.2-0.5,0.2c-0.2,0-0.4-0.1-0.5-0.2c-0.1-0.1-0.2-0.3-0.2-0.5
			v-6.4c0-0.2,0.1-0.3,0.2-0.5c0.1-0.1,0.3-0.2,0.5-0.2c0.2,0,0.3,0.1,0.5,0.2c0.1,0.1,0.2,0.3,0.2,0.5V239.8z"/>
	</g>
</g>
</svg>
